<svg width="97" height="104" viewBox="0 0 97 104" fill="none" xmlns="http://www.w3.org/2000/svg">
<g filter="url(#filter0_d_3035_1226)">
<path d="M51.8691 34.461C50.5919 34.463 49.3483 34.7854 48.2456 35.3835L48.2264 23.3418C48.2232 21.3195 47.4168 19.3813 45.9845 17.9536C44.5523 16.526 42.6115 15.7257 40.5893 15.7289C38.567 15.7321 36.6288 16.5386 35.2011 17.9708C33.7735 19.4031 32.9732 21.3438 32.9764 23.3661L33.0195 50.4126L30.9179 48.3177L30.9153 48.3151C29.4926 46.9021 27.6393 46.0038 25.6486 45.7626C23.658 45.5213 21.6438 45.9509 19.9247 46.9831L19.9231 46.9841C18.2216 48.0079 16.9866 49.6552 16.4808 51.5755C15.975 53.4958 16.2384 55.5377 17.2149 57.2669C24.2577 69.7415 28.4204 76.975 29.6393 78.8386L29.6405 78.8403L30.3773 79.9642L30.3813 79.9703C32.6183 83.3554 35.661 86.1319 39.2362 88.0505C42.49 89.7967 46.0922 90.7825 49.7723 90.9402C49.8739 90.956 49.9781 90.9641 50.0842 90.9639L50.8563 90.9627L50.8566 90.9627L50.8642 90.9626L50.8645 90.9626L57.5842 90.9519C64.082 90.9416 70.3095 88.3504 74.8968 83.7485C79.4841 79.1465 82.0554 72.9107 82.0451 66.4129L82.0182 49.5379C82.015 47.5157 81.2085 45.5775 79.7763 44.1498C78.3441 42.7221 76.4033 41.9219 74.3811 41.9251C72.9134 41.9274 71.4901 42.3528 70.274 43.1334C69.8939 42.1228 69.2998 41.1947 68.5203 40.4178C67.0881 38.9901 65.1474 38.1898 63.1251 38.193C61.6575 38.1954 60.2341 38.6208 59.0181 39.4014C58.6379 38.3908 58.0438 37.4626 57.2644 36.6857C55.8321 35.258 53.8914 34.4577 51.8691 34.461Z" fill="#FFEED9" stroke="white" stroke-width="4" stroke-linecap="round" stroke-linejoin="round"/>
<path d="M54.0922 18.9655L59.7796 13.6135" stroke="white" stroke-width="4" stroke-linecap="round"/>
<path d="M27.7646 18.6983L22.97 14.1491" stroke="white" stroke-width="4" stroke-linecap="round"/>
<path d="M56.7272 27.3554L61.8146 27.3723" stroke="white" stroke-width="4" stroke-linecap="round"/>
<path d="M25.777 29.0012L20.6926 28.8261" stroke="white" stroke-width="4" stroke-linecap="round"/>
</g>
<path d="M35.0272 55.2378L34.9764 23.3629C34.974 21.871 35.5644 20.4394 36.6176 19.3828C37.6708 18.3262 39.1006 17.7313 40.5925 17.7289C42.0843 17.7265 43.516 18.3169 44.5726 19.3701C45.6291 20.4233 46.224 21.8531 46.2264 23.3449L46.2563 42.0949C46.2539 40.6031 46.8443 39.1714 47.8975 38.1148C48.9507 37.0583 50.3805 36.4633 51.8723 36.461C53.3642 36.4586 54.7958 37.0489 55.8524 38.1022C56.909 39.1554 57.5039 40.5852 57.5063 42.077L57.5123 45.827C57.5099 44.3352 58.1002 42.9035 59.1534 41.8469C60.2066 40.7903 61.6364 40.1954 63.1283 40.193C64.6201 40.1907 66.0518 40.781 67.1084 41.8342C68.165 42.8874 68.7599 44.3172 68.7622 45.8091L68.7682 49.5591C68.7658 48.0672 69.3562 46.6355 70.4094 45.579C71.4626 44.5224 72.8924 43.9275 74.3842 43.9251C75.8761 43.9227 77.3078 44.5131 78.3643 45.5663C79.4209 46.6195 80.0158 48.0493 80.0182 49.5411L80.0451 66.4161C80.0546 72.3835 77.6932 78.1102 73.4804 82.3365C69.2675 86.5628 63.5483 88.9424 57.581 88.9519L50.861 88.9626L50.8534 88.9627C47.1298 88.968 43.463 88.049 40.1819 86.2882C36.8986 84.5262 34.1043 81.9764 32.0499 78.8676L31.3131 77.7438C30.1402 75.9506 26.0213 68.7972 18.9564 56.2834C18.236 55.0078 18.0417 53.5015 18.4149 52.0849C18.788 50.6682 19.699 49.453 20.9543 48.6978C22.2919 47.8945 23.8591 47.5604 25.408 47.7481C26.9569 47.9358 28.3989 48.6347 29.5059 49.7341L35.0272 55.2378Z" fill="#FFEED9"/>
<path d="M46.2264 23.3449C46.224 21.8531 45.6291 20.4233 44.5726 19.3701C43.516 18.3169 42.0843 17.7265 40.5925 17.7289C39.1006 17.7313 37.6708 18.3262 36.6176 19.3828C35.5644 20.4394 34.974 21.871 34.9764 23.3629L35.0272 55.2378L29.5059 49.7341C28.3989 48.6347 26.9569 47.9358 25.408 47.7481C23.8591 47.5604 22.2919 47.8945 20.9543 48.6978C19.699 49.453 18.788 50.6682 18.4149 52.0849C18.0417 53.5015 18.236 55.0078 18.9564 56.2834C26.0213 68.7972 30.1402 75.9506 31.3131 77.7438L32.0499 78.8676C34.1043 81.9764 36.8986 84.5262 40.1819 86.2882C43.463 88.049 47.1298 88.968 50.8534 88.9627M46.2264 23.3449L46.2712 51.4699M46.2264 23.3449L46.2563 42.0949M46.2682 49.5949L46.2563 42.0949M46.2563 42.0949C46.2539 40.6031 46.8443 39.1714 47.8975 38.1148C48.9507 37.0583 50.3805 36.4633 51.8723 36.461C53.3642 36.4586 54.7958 37.0489 55.8524 38.1022C56.909 39.1554 57.5039 40.5852 57.5063 42.077M57.5063 42.077L57.5212 51.452M57.5063 42.077L57.5123 45.827C57.5099 44.3352 58.1002 42.9035 59.1534 41.8469C60.2066 40.7903 61.6364 40.1954 63.1283 40.193C64.6201 40.1907 66.0518 40.781 67.1084 41.8342C68.165 42.8874 68.7599 44.3172 68.7622 45.8091L68.7682 49.5591C68.7658 48.0672 69.3562 46.6355 70.4094 45.579C71.4626 44.5224 72.8924 43.9275 74.3842 43.9251C75.8761 43.9227 77.3078 44.5131 78.3643 45.5663C79.4209 46.6195 80.0158 48.0493 80.0182 49.5411L80.0451 66.4161C80.0546 72.3835 77.6932 78.1102 73.4804 82.3365C69.2675 86.5628 63.5483 88.9424 57.581 88.9519M57.581 88.9519L50.861 88.9626M57.581 88.9519L50.8534 88.9627M50.081 88.9639L50.8534 88.9627M50.861 88.9626L50.8534 88.9627M50.861 88.9626C50.8585 88.9626 50.8559 88.9627 50.8534 88.9627" stroke="black" stroke-width="4" stroke-linecap="round" stroke-linejoin="round"/>
<path d="M54.0922 18.9655L59.7796 13.6135" stroke="black" stroke-width="4" stroke-linecap="round"/>
<path d="M27.7646 18.6983L22.97 14.1491" stroke="black" stroke-width="4" stroke-linecap="round"/>
<path d="M56.7272 27.3554L61.8146 27.3723" stroke="black" stroke-width="4" stroke-linecap="round"/>
<path d="M25.777 29.0012L20.6926 28.8261" stroke="black" stroke-width="4" stroke-linecap="round"/>
<defs>
<filter id="filter0_d_3035_1226" x="10.2295" y="11.6133" width="73.8154" height="85.3496" filterUnits="userSpaceOnUse" color-interpolation-filters="sRGB">
<feFlood flood-opacity="0" result="BackgroundImageFix"/>
<feColorMatrix in="SourceAlpha" type="matrix" values="0 0 0 0 0 0 0 0 0 0 0 0 0 0 0 0 0 0 127 0" result="hardAlpha"/>
<feOffset dx="-2" dy="2"/>
<feGaussianBlur stdDeviation="1"/>
<feComposite in2="hardAlpha" operator="out"/>
<feColorMatrix type="matrix" values="0 0 0 0 0 0 0 0 0 0 0 0 0 0 0 0 0 0 0.25 0"/>
<feBlend mode="normal" in2="BackgroundImageFix" result="effect1_dropShadow_3035_1226"/>
<feBlend mode="normal" in="SourceGraphic" in2="effect1_dropShadow_3035_1226" result="shape"/>
</filter>
</defs>
</svg>
