<svg width="229" height="219" viewBox="0 0 229 219" fill="none" xmlns="http://www.w3.org/2000/svg">
<g filter="url(#filter0_f_3744_1317)">
<path d="M61.2832 20.749C68.3163 19.3002 75.0931 20.245 80.3066 21.165L80.3271 21.168L80.3467 21.1719C87.2826 22.4246 95.06 25.7921 101.861 30.0117C105.11 32.0275 108.379 34.3897 111.386 37.0352C116.591 32.3858 122.619 29.2169 128.298 26.9561C139.863 21.1715 152.452 20.975 162.678 21.3438C163.651 21.3458 164.651 21.3136 165.923 21.2773C167.16 21.2421 168.631 21.205 170.149 21.2412C173.18 21.3135 176.996 21.6796 180.91 23.292L180.911 23.291C198.539 30.5476 207.646 46.7559 207.825 64.4863C208.024 69.1056 208.509 76.3016 206.191 83.2578C203.571 91.6418 198.559 99.282 195.455 104.769L195.163 105.286L194.811 105.765C193.222 107.928 191.426 109.713 190.181 110.951C188.768 112.356 187.959 113.162 187.296 114.006L186.89 114.524L186.418 114.984C184.688 116.673 183.027 118.512 181.151 120.611C179.395 122.577 177.41 124.813 175.279 126.969C170.113 132.705 164.583 137.961 159.156 142.911C154.744 147.055 149.902 150.619 145.766 153.742C141.41 157.031 137.679 159.942 134.478 163.245L134.39 163.337L134.299 163.425C129.793 167.844 126.022 173.241 122.193 179.409C120.686 181.853 119.054 184.228 117.63 186.323C116.397 188.516 114.137 191.424 110.493 192.985C108.167 193.982 105.084 194.47 101.814 193.389C98.6524 192.342 96.5066 190.221 95.1494 188.258L94.9502 187.97L94.7715 187.669C93.7968 186.024 93.1518 184.276 92.8418 182.479C92.6971 182.209 92.5133 181.864 92.2686 181.391L92.2109 181.278L92.1553 181.164C90.6146 177.989 88.6451 174.891 86.335 171.68C83.5154 168.364 81.4998 165.799 79.0439 163.251L78.2803 162.48C76.4844 160.69 74.5843 158.931 72.5195 157.021C70.2834 154.953 67.8469 152.699 65.4863 150.295C61.4596 146.61 57.6759 142.242 54.7236 139.098C50.2795 134.672 45.9197 129.998 41.8428 124.948C38.3589 121.097 32.1799 115.211 28.2852 108.411L28.1895 108.244L28.0996 108.073C22.6269 97.6021 19.3424 85.3913 20.1152 72.8926C20.106 63.038 22.5191 53.3872 27.1797 44.6924C30.203 38.9285 35.1529 34.662 37.8516 32.127L38.252 31.751L38.6914 31.4209C45.1556 26.5639 52.8105 22.7196 61.0322 20.8047L61.1572 20.7754L61.2832 20.749ZM69.832 45.1074C67.8239 44.5698 65.626 44.8854 62.5967 46.7266C59.3752 48.6845 56.1772 51.8053 52.8271 55.4473L52.6045 55.6895L52.3672 55.916C49.4826 58.6655 47.2029 62.3204 45.626 66.543C44.9271 70.6148 45.8664 74.9981 47.0762 82.1445C48.6572 89.5432 49.3335 93.6949 50.8701 97.6367C52.0939 100.776 53.9136 103.772 57.8525 107.395L58.6699 108.128L58.9307 108.357L59.1758 108.604C60.901 110.343 62.8635 111.98 65.2227 113.893C67.4255 115.678 70.0876 117.794 72.5967 120.123C80.3784 127.024 88.237 134.478 95.209 143.014L95.8828 143.846L95.9355 143.912C98.686 147.396 100.996 151.068 103.002 154.27C103.878 155.669 104.699 156.98 105.501 158.223C110.796 152.517 116.69 147.609 121.011 143.515C122.948 141.572 124.788 139.515 126.912 137.171C128.992 134.875 131.316 132.337 133.878 129.916L134.08 129.725L134.292 129.546C136.056 128.055 137.752 126.372 139.732 124.371C141.554 122.531 143.68 120.358 145.982 118.299C148.993 115.29 152.807 112.411 154.974 110.614C158.952 106.907 163.353 102.834 168.19 99.1826L168.36 99.0537L168.536 98.9326C169.797 98.0625 171.069 96.8073 172.827 94.833L172.866 94.7891L172.905 94.7461C173.118 94.5128 173.327 94.2874 173.51 94.0908C173.701 93.8851 173.86 93.7137 174.018 93.542C174.332 93.1998 174.548 92.9535 174.718 92.7471C174.838 92.601 174.911 92.4986 174.954 92.4375C177.507 85.6067 179.786 79.4939 181.221 73.2529C181.9 67.3409 182.5 63.031 182.122 58.834C182.04 58.5719 181.834 58.1067 181.288 57.3555C180.533 56.3171 179.584 55.3136 178.105 53.7578C177.042 52.8073 175.72 51.9837 173.307 50.4629L173.202 50.3965L173.1 50.3281C170.058 48.305 168.776 47.7064 167.751 47.5586L167.35 47.501L166.954 47.4102C157.384 45.2277 149.716 45.6554 141.948 49.6377L141.44 49.8984L140.907 50.0986C134.295 52.5858 129.811 55.098 126.222 59.1465C126.085 60.1229 125.84 61.1074 125.464 62.085C124.265 65.2013 122.024 67.5084 119.447 68.8809C115.495 70.9863 110.376 71.0442 106.231 68.5049C103.22 67.1944 101.142 64.8384 99.834 62.6582C97.0787 59.407 93.7346 56.4409 89.9238 53.5557C84.5185 49.6004 77.7515 47.0957 69.9844 45.1475L69.9082 45.1279L69.832 45.1074Z" stroke="#FFEC5B" stroke-opacity="0.7" stroke-width="20"/>
</g>
<defs>
<filter id="filter0_f_3744_1317" x="0" y="0.00195312" width="228.012" height="218.92" filterUnits="userSpaceOnUse" color-interpolation-filters="sRGB">
<feFlood flood-opacity="0" result="BackgroundImageFix"/>
<feBlend mode="normal" in="SourceGraphic" in2="BackgroundImageFix" result="shape"/>
<feGaussianBlur stdDeviation="5" result="effect1_foregroundBlur_3744_1317"/>
</filter>
</defs>
</svg>
