<svg width="176" height="164" viewBox="0 0 176 164" fill="none" xmlns="http://www.w3.org/2000/svg">
<g filter="url(#filter0_d_3744_1316)">
<path fill-rule="evenodd" clip-rule="evenodd" d="M37.3005 0.54371C42.3576 -0.498107 47.5373 0.124488 52.569 1.01246C63.2723 2.94558 78.935 12.0542 85.5212 22.0652C86.1614 21.1452 86.8968 20.276 87.5681 19.4177C92.2178 13.0244 99.1609 8.91448 106.408 6.08277C115.705 1.30013 126.299 0.965242 136.531 1.34352C141.382 1.36604 146.503 0.641276 151.104 2.53785C164.598 8.09237 171.756 20.4427 171.829 34.8035C172.045 39.9123 172.344 45.1735 170.704 50.0974C168.524 57.2002 164.376 63.437 160.752 69.8445C158.609 72.7605 155.671 74.9785 153.432 77.8289C149.422 81.7435 145.951 86.1381 142.004 90.1072C137.121 95.546 131.816 100.598 126.417 105.523C118.506 112.984 108.897 118.444 101.297 126.286C95.9242 131.555 91.6507 137.766 87.697 144.136C86.231 146.514 84.6424 148.812 83.0749 151.124C81.9394 153.399 79.3902 155.487 77.3747 152.571C76.7939 151.591 76.5845 150.637 76.6345 149.708C76.1972 148.712 75.6514 147.764 75.1521 146.799C73.2214 142.819 70.827 139.114 68.236 135.535C65.5778 132.422 63.0322 129.197 60.1862 126.252C55.7439 121.718 50.8735 117.644 46.4401 113.105C42.6898 109.707 39.4139 105.867 35.9509 102.184C31.5459 97.806 27.323 93.2725 23.4323 88.4304C19.0997 83.6051 14.2101 79.1114 10.9626 73.4412C6.1256 64.1863 3.39495 53.6587 4.11397 43.1834C4.05619 34.8443 6.08036 26.6837 10.0349 19.3377C12.0953 15.4093 15.5068 12.4134 18.698 9.41578C24.1922 5.28758 30.5948 2.1055 37.3005 0.54371ZM46.4177 5.44801C35.4821 2.52041 26.2967 11.2534 19.4675 18.6775C15.0887 22.8512 11.9594 28.1795 9.95772 33.8689C8.54435 40.508 10.1405 47.4288 11.2517 54.0144C14.184 67.6994 14.8477 75.7964 26.0749 85.6453C30.3666 89.9731 35.4426 93.391 39.8981 97.5476C47.8055 104.557 55.4547 111.852 62.0866 120.108C66.8208 126.105 70.2598 133.027 74.8933 139.122C76.1099 141.079 77.5873 142.894 78.8952 144.802C80.0722 143.257 81.4449 141.793 82.3308 140.403C87.8893 132.864 95.2567 127.076 101.995 120.675C106.371 116.301 110.244 111.439 114.747 107.183C119.035 103.559 122.665 99.2764 126.865 95.5584C129.551 92.8254 132.645 90.5875 135.57 88.1375C139.649 84.3354 143.762 80.5246 148.215 77.1638C150.515 75.5768 152.444 73.5622 154.295 71.4841C155.734 69.906 157.308 68.3847 158.156 66.3855C160.783 59.3541 163.454 52.3023 165.091 44.9578C165.752 39.1309 166.651 33.1861 166.025 27.3279C165.272 22.9483 162.03 19.6827 159.088 16.5877C157.149 14.7828 154.87 13.4081 152.637 12.0017C149.722 10.0625 146.712 8.17042 143.177 7.6609C131.964 5.10358 121.769 5.41595 111.386 10.739C102.606 14.0416 95.6736 17.969 90.1394 25.8015C91.3806 30.1193 86.9417 31.5918 84.8591 29.5066C83.925 29.3849 82.9048 28.594 82.1208 26.9841C78.5791 22.6341 74.3632 18.9105 69.8981 15.5349C62.9529 10.4323 54.7086 7.52768 46.4177 5.44801Z" fill="black"/>
</g>
<defs>
<filter id="filter0_d_3744_1316" x="0" y="0" width="176" height="164" filterUnits="userSpaceOnUse" color-interpolation-filters="sRGB">
<feFlood flood-opacity="0" result="BackgroundImageFix"/>
<feColorMatrix in="SourceAlpha" type="matrix" values="0 0 0 0 0 0 0 0 0 0 0 0 0 0 0 0 0 0 127 0" result="hardAlpha"/>
<feOffset dy="6"/>
<feGaussianBlur stdDeviation="2"/>
<feComposite in2="hardAlpha" operator="out"/>
<feColorMatrix type="matrix" values="0 0 0 0 0 0 0 0 0 0 0 0 0 0 0 0 0 0 0.25 0"/>
<feBlend mode="normal" in2="BackgroundImageFix" result="effect1_dropShadow_3744_1316"/>
<feBlend mode="normal" in="SourceGraphic" in2="effect1_dropShadow_3744_1316" result="shape"/>
</filter>
</defs>
</svg>
