<svg width="196" height="182" viewBox="0 0 196 182" fill="none" xmlns="http://www.w3.org/2000/svg">
<g filter="url(#filter0_f_3747_1329)">
<path d="M46.4932 10.626C51.9753 9.49661 57.4322 10.0859 62.2988 10.9062L63.2646 11.0732L63.2725 11.0752L63.2803 11.0762C69.2656 12.1572 76.3316 15.1604 82.6982 19.1104C87.3959 22.0248 91.9435 25.5993 95.502 29.5527C100.675 23.2264 107.772 19.1846 114.773 16.4277C124.98 11.2472 136.373 10.9705 146.584 11.3438C147.703 11.3481 148.84 11.3101 150.094 11.2744C151.329 11.2392 152.661 11.2072 154.007 11.2393C156.696 11.3034 159.68 11.626 162.626 12.8398C177.782 19.0787 185.72 32.9839 185.827 48.7002C186.036 53.5995 186.409 59.629 184.499 65.3613C182.143 72.9756 177.647 79.7794 174.233 85.8145L174.116 86.0205L173.976 86.2129C172.697 87.9529 171.217 89.4367 169.949 90.6973C168.615 92.0244 167.515 93.107 166.578 94.2998L166.415 94.5068L166.227 94.6914C164.332 96.5413 162.545 98.5232 160.677 100.613C158.86 102.646 156.954 104.794 154.92 106.846C149.922 112.406 144.524 117.542 139.112 122.479C134.974 126.374 130.408 129.739 126.15 132.954C121.804 136.236 117.73 139.396 114.169 143.069L114.134 143.106L114.098 143.142C109.075 148.068 105.003 153.948 101.102 160.233C99.6193 162.639 98.014 164.969 96.5127 167.181C95.6956 168.71 94.2491 170.563 92.1299 171.471C90.8902 172.002 89.331 172.232 87.6992 171.692C86.1103 171.167 84.9292 170.068 84.084 168.846L84.0049 168.73L83.9336 168.61C83.1745 167.329 82.7579 165.993 82.6543 164.645C82.3673 164.071 82.0419 163.493 81.5986 162.636L81.5752 162.591L81.5537 162.545C79.7805 158.89 77.557 155.428 75.0762 151.993C72.3411 148.784 70.0151 145.834 67.3291 143.052L66.5215 142.236C64.6239 140.344 62.6414 138.511 60.5938 136.617C58.3073 134.502 55.9392 132.31 53.667 129.989C49.8086 126.48 46.323 122.422 43.0723 118.963C38.6487 114.563 34.3671 109.969 30.3975 105.039C26.4213 100.62 21.0028 95.5601 17.4912 89.4287L17.4531 89.3623L17.418 89.2939C12.326 79.5511 9.37264 68.3471 10.1152 57.0576C10.0786 48.1014 12.264 39.334 16.5127 31.4414C18.9602 26.7978 22.973 23.3049 25.959 20.5L26.1191 20.3496L26.2949 20.2178C32.1772 15.798 39.0814 12.3515 46.3936 10.6484L46.4434 10.6367L46.4932 10.626ZM55.3828 23.3115C51.2992 22.2185 47.4021 23.2153 43.4805 25.5986C39.4817 28.029 35.7999 31.7017 32.4111 35.3857L32.3223 35.4824L32.2275 35.5732C28.4481 39.1757 25.6548 43.837 23.8193 48.9531C22.7026 54.5515 24.0214 60.4067 25.1816 67.2676C26.695 74.34 27.5046 79.2628 29.2793 83.8154C30.9104 87.9995 33.38 91.8529 38.2354 96.2148L38.7129 96.6387L38.8174 96.7305L38.915 96.8291C40.8926 98.8233 43.0833 100.64 45.4443 102.554C47.7388 104.414 50.232 106.395 52.5703 108.571C60.2812 115.407 67.8781 122.626 74.5605 130.808L75.2051 131.604L75.2158 131.616L75.2266 131.63C77.747 134.823 79.8974 138.229 81.918 141.455C83.8458 144.533 85.652 147.439 87.6709 150.159L88.0771 150.701L88.1914 150.851L88.291 151.011C88.5232 151.384 88.7708 151.757 89.0322 152.137L89.1113 152.029C94.9367 144.128 102.835 137.854 109.201 131.811C111.289 129.722 113.261 127.515 115.358 125.199C117.437 122.904 119.624 120.522 121.999 118.276L122.08 118.2L122.165 118.128C124.157 116.444 126.023 114.585 127.996 112.592C129.902 110.667 131.928 108.596 134.108 106.657C136.928 103.811 140.339 101.294 142.932 99.1289C146.967 95.3679 151.196 91.4495 155.805 87.9707L155.873 87.9199L155.943 87.8711C157.828 86.5709 159.494 84.8598 161.308 82.8232L161.323 82.8066L161.339 82.7891C163.023 80.9425 163.937 80.0485 164.451 78.8721C167.063 71.8835 169.583 65.1936 171.143 58.2744C171.819 52.3579 172.592 47.086 172.062 41.8955C171.524 39.0293 169.381 36.7032 166.283 33.4434C164.699 31.9883 162.822 30.8459 160.505 29.3857L160.463 29.3594L160.422 29.332C157.456 27.3593 155.137 25.9849 152.606 25.6201L152.446 25.5967L152.288 25.5605C141.732 23.1532 132.548 23.5121 123.211 28.2988L123.008 28.4023L122.795 28.4834C114.92 31.4455 109.069 34.7485 104.344 40.8418C104.393 41.8937 104.247 42.9379 103.864 43.9316C103.22 45.6057 102.021 46.8428 100.626 47.5859C98.3209 48.8137 95.3055 48.7629 92.9893 47.1396C91.0873 46.4421 89.689 44.8895 88.7734 43.2139C85.5594 39.3305 81.7135 35.9239 77.5215 32.752C71.1904 28.1031 63.5323 25.3569 55.4443 23.3281L55.4141 23.3203L55.3828 23.3115Z" stroke="white" stroke-opacity="0.9" stroke-width="8"/>
</g>
<defs>
<filter id="filter0_f_3747_1329" x="0" y="0.00195312" width="196.005" height="181.998" filterUnits="userSpaceOnUse" color-interpolation-filters="sRGB">
<feFlood flood-opacity="0" result="BackgroundImageFix"/>
<feBlend mode="normal" in="SourceGraphic" in2="BackgroundImageFix" result="shape"/>
<feGaussianBlur stdDeviation="3" result="effect1_foregroundBlur_3747_1329"/>
</filter>
</defs>
</svg>
