<svg width="124" height="125" viewBox="0 0 124 125" fill="none" xmlns="http://www.w3.org/2000/svg">
<g filter="url(#filter0_d_2375_1275)">
<circle cx="60" cy="60.5039" r="60" fill="#FF97CD"/>
<circle cx="60" cy="60.5039" r="56" stroke="#FF64B4" stroke-width="8"/>
</g>
<path d="M90.5 54.7306H87.8844C87.2562 47.9705 84.0995 41.6866 79.0334 37.1115C73.9673 32.5363 67.3573 30 60.5 30C53.6427 30 47.0327 32.5363 41.9666 37.1115C36.9005 41.6866 33.7438 47.9705 33.1156 54.7306H30.5C29.837 54.7306 29.2011 54.9913 28.7322 55.4555C28.2634 55.9196 28 56.5491 28 57.2055C28.011 63.0913 29.6472 68.8622 32.7316 73.8939C35.816 78.9257 40.2313 83.0269 45.5 85.7541V86.9049C45.5 88.2177 46.0268 89.4768 46.9645 90.405C47.9021 91.3333 49.1739 91.8548 50.5 91.8548H70.5C71.8261 91.8548 73.0979 91.3333 74.0355 90.405C74.9732 89.4768 75.5 88.2177 75.5 86.9049V85.7541C80.7687 83.0269 85.184 78.9257 88.2684 73.8939C91.3528 68.8622 92.989 63.0913 93 57.2055C93 56.5491 92.7366 55.9196 92.2678 55.4555C91.7989 54.9913 91.163 54.7306 90.5 54.7306ZM74.7125 39.952C75.2854 40.4161 75.8344 40.9059 76.3594 41.4215C69.7043 43.7392 64.2047 48.5024 61 54.7244H51.7812C53.3438 50.3884 56.2204 46.6356 60.0182 43.9789C63.816 41.3222 68.3497 39.891 73 39.8809C73.5719 39.8809 74.1437 39.9087 74.7125 39.952ZM66.7875 54.7306C69.8185 50.2289 74.404 46.9763 79.6844 45.5825C81.4109 48.3627 82.4941 51.4868 82.8562 54.7306H66.7875ZM60.5 34.931C62.5061 34.9328 64.503 35.2002 66.4375 35.726C61.7264 36.883 57.4065 39.249 53.9134 42.5854C50.4202 45.9219 47.8772 50.111 46.5406 54.7306H38.1438C38.7639 49.2883 41.3854 44.2624 45.5085 40.6108C49.6315 36.9592 54.9678 34.9375 60.5 34.931Z" fill="white"/>
<path d="M64.7389 63.168C62.8936 63.168 61.3002 64.241 60.4995 65.8062C59.6987 64.241 58.1053 63.168 56.26 63.168C53.6149 63.168 51.4717 65.3705 51.4717 68.0814C51.4717 70.7922 53.112 73.2772 55.2317 75.3184C57.3515 77.3596 60.4995 79.304 60.4995 79.304C60.4995 79.304 63.5454 77.3919 65.7672 75.3184C68.137 73.1078 69.5272 70.8003 69.5272 68.0814C69.5272 65.3625 67.384 63.168 64.7389 63.168Z" fill="#FF97CD"/>
<defs>
<filter id="filter0_d_2375_1275" x="0" y="0.503906" width="124" height="124" filterUnits="userSpaceOnUse" color-interpolation-filters="sRGB">
<feFlood flood-opacity="0" result="BackgroundImageFix"/>
<feColorMatrix in="SourceAlpha" type="matrix" values="0 0 0 0 0 0 0 0 0 0 0 0 0 0 0 0 0 0 127 0" result="hardAlpha"/>
<feOffset dx="2" dy="2"/>
<feGaussianBlur stdDeviation="1"/>
<feComposite in2="hardAlpha" operator="out"/>
<feColorMatrix type="matrix" values="0 0 0 0 0 0 0 0 0 0 0 0 0 0 0 0 0 0 0.25 0"/>
<feBlend mode="normal" in2="BackgroundImageFix" result="effect1_dropShadow_2375_1275"/>
<feBlend mode="normal" in="SourceGraphic" in2="effect1_dropShadow_2375_1275" result="shape"/>
</filter>
</defs>
</svg>
