<svg width="124" height="124" viewBox="0 0 124 124" fill="none" xmlns="http://www.w3.org/2000/svg">
<g filter="url(#filter0_d_2375_1276)">
<circle cx="60" cy="60" r="60" fill="#FFDC2D"/>
<circle cx="60" cy="60" r="56" stroke="#FAC400" stroke-width="8"/>
</g>
<path d="M34.0028 53.4413C36.0478 52.2966 38.6027 53.1454 39.7095 55.2167L45.1619 66.1717C45.264 66.3791 45.4425 66.5405 45.6609 66.6231C45.8794 66.7058 46.1216 66.7036 46.3385 66.6169C46.5103 66.5495 46.6576 66.4327 46.7612 66.2818C46.8649 66.1309 46.92 65.9528 46.9196 65.7707V35.3444C46.9196 33.5391 48.6127 32.2296 50.4469 32.2296C52.281 32.2296 53.8727 33.5391 53.8727 35.3444V55.6736C53.8683 56.0532 54.0144 56.4196 54.2798 56.6949C54.5453 56.9702 54.9093 57.1327 55.2945 57.1479C55.4871 57.1515 55.6786 57.1173 55.8576 57.0472C56.0367 56.977 56.1998 56.8725 56.3373 56.7395C56.4748 56.6066 56.5841 56.448 56.6586 56.273C56.7332 56.098 56.7716 55.9101 56.7715 55.7203V29.1148C56.7715 27.3095 58.213 26 60.0472 26C61.8813 26 63.3597 27.3095 63.3597 29.1148V55.6736C63.3553 56.0532 63.5013 56.4196 63.7668 56.6949C64.0323 56.9702 64.3963 57.1327 64.7814 57.1479C64.9741 57.1515 65.1656 57.1173 65.3446 57.0472C65.5237 56.977 65.6867 56.8725 65.8243 56.7395C65.9618 56.6066 66.071 56.448 66.1456 56.273C66.2202 56.098 66.2585 55.9101 66.2585 55.7203V33.2678C66.2585 31.4626 67.8502 30.1531 69.6844 30.1531C71.5185 30.1531 73.1102 31.5923 73.1102 33.3976V57.7501C73.1058 58.1298 73.2518 58.4962 73.5173 58.7715C73.7828 59.0468 74.1468 59.2093 74.5319 59.2244C74.7246 59.2281 74.916 59.1938 75.0951 59.1237C75.2742 59.0536 75.4372 58.949 75.5748 58.8161C75.7123 58.6831 75.8215 58.5245 75.8961 58.3495C75.9707 58.1745 76.009 57.9866 76.009 57.7968V41.5739C76.009 39.7687 77.4689 38.4592 79.3031 38.4592C81.1372 38.4592 82.613 39.7855 82.5972 41.5739V69.6071C82.5972 84.8449 73.1102 92.4489 61.515 92.4489H59.4068C47.8116 92.4489 44.1605 87.3095 41.487 81.028L32.4388 59.0946C31.5612 56.7586 31.9592 54.5847 34.0028 53.4413Z" fill="white"/>
<path d="M66.1748 67.4688C64.3828 67.4688 62.8355 68.4998 62.0579 70.0038C61.2803 68.4998 59.7329 67.4688 57.941 67.4688C55.3723 67.4688 53.291 69.5851 53.291 72.1899C53.291 74.7947 54.884 77.1825 56.9424 79.1438C59.0009 81.1052 62.0579 82.9735 62.0579 82.9735C62.0579 82.9735 65.0158 81.1362 67.1733 79.1438C69.4746 77.0197 70.8247 74.8025 70.8247 72.1899C70.8247 69.5774 68.7435 67.4688 66.1748 67.4688Z" fill="#FFE045"/>
<defs>
<filter id="filter0_d_2375_1276" x="0" y="0" width="124" height="124" filterUnits="userSpaceOnUse" color-interpolation-filters="sRGB">
<feFlood flood-opacity="0" result="BackgroundImageFix"/>
<feColorMatrix in="SourceAlpha" type="matrix" values="0 0 0 0 0 0 0 0 0 0 0 0 0 0 0 0 0 0 127 0" result="hardAlpha"/>
<feOffset dx="2" dy="2"/>
<feGaussianBlur stdDeviation="1"/>
<feComposite in2="hardAlpha" operator="out"/>
<feColorMatrix type="matrix" values="0 0 0 0 0 0 0 0 0 0 0 0 0 0 0 0 0 0 0.25 0"/>
<feBlend mode="normal" in2="BackgroundImageFix" result="effect1_dropShadow_2375_1276"/>
<feBlend mode="normal" in="SourceGraphic" in2="effect1_dropShadow_2375_1276" result="shape"/>
</filter>
</defs>
</svg>
