<svg width="124" height="124" viewBox="0 0 124 124" fill="none" xmlns="http://www.w3.org/2000/svg">
<g filter="url(#filter0_d_2375_1280)">
<circle cx="60" cy="60" r="60" fill="#FFB152"/>
<circle cx="60" cy="60" r="56" stroke="#FB8A00" stroke-width="8"/>
</g>
<path d="M62 32C44.3271 32 30 43.0495 30 56.6797C30 64.3798 34.576 71.2549 41.7404 75.7801C40.8089 79.8505 40.6293 80.24 35.5467 86.2883C45.7831 84.596 50.3378 85.3065 54.384 80.6261C56.894 81.1061 59.4438 81.3516 62 81.3595C79.6729 81.3595 94 70.31 94 56.6797C94 43.0495 79.6729 32 62 32Z" fill="white"/>
<path d="M65.9653 48.8125C64.1348 48.8125 62.5542 49.8717 61.7599 51.4167C60.9656 49.8717 59.385 48.8125 57.5545 48.8125C54.9307 48.8125 52.8047 50.9867 52.8047 53.6626C52.8047 56.3385 54.4319 58.7914 56.5345 60.8063C58.6372 62.8212 61.7599 64.7405 61.7599 64.7405C61.7599 64.7405 64.7814 62.853 66.9853 60.8063C69.336 58.6242 70.7151 56.3464 70.7151 53.6626C70.7151 50.9787 68.5892 48.8125 65.9653 48.8125Z" fill="#FFB152"/>
<defs>
<filter id="filter0_d_2375_1280" x="0" y="0" width="124" height="124" filterUnits="userSpaceOnUse" color-interpolation-filters="sRGB">
<feFlood flood-opacity="0" result="BackgroundImageFix"/>
<feColorMatrix in="SourceAlpha" type="matrix" values="0 0 0 0 0 0 0 0 0 0 0 0 0 0 0 0 0 0 127 0" result="hardAlpha"/>
<feOffset dx="2" dy="2"/>
<feGaussianBlur stdDeviation="1"/>
<feComposite in2="hardAlpha" operator="out"/>
<feColorMatrix type="matrix" values="0 0 0 0 0 0 0 0 0 0 0 0 0 0 0 0 0 0 0.25 0"/>
<feBlend mode="normal" in2="BackgroundImageFix" result="effect1_dropShadow_2375_1280"/>
<feBlend mode="normal" in="SourceGraphic" in2="effect1_dropShadow_2375_1280" result="shape"/>
</filter>
</defs>
</svg>
