<svg width="124" height="124" viewBox="0 0 124 124" fill="none" xmlns="http://www.w3.org/2000/svg">
<g filter="url(#filter0_d_2375_1277)">
<circle cx="60" cy="60" r="60" fill="#B1E551"/>
<circle cx="60" cy="60" r="56" stroke="#8CBF2E" stroke-width="8"/>
</g>
<path d="M52.0684 37.6025L56.2824 44.1442H47.4062C44.7301 44.1442 42.5625 42.1663 42.5625 39.7242C42.5625 37.2821 44.7301 35.3041 47.4062 35.3041H47.6727C49.477 35.3041 51.1602 36.1771 52.0684 37.6025ZM36.75 39.7242C36.75 41.3154 37.1738 42.8182 37.9125 44.1442H32.875C30.7316 44.1442 29 45.7244 29 47.6803V51.1274C29 53.0833 30.7316 54.6634 32.875 54.6634H87.125C89.2684 54.6634 91 53.0833 91 51.1274V47.6803C91 45.7244 89.2684 44.1442 87.125 44.1442H82.0875C82.8262 42.8182 83.25 41.3154 83.25 39.7242C83.25 34.3538 78.4789 30 72.5938 30H72.3273C68.4644 30 64.8801 31.8675 62.9184 34.9063L60 39.4479L57.0816 34.9173C55.1199 31.8675 51.5355 30 47.6727 30H47.4062C41.5211 30 36.75 34.3538 36.75 39.7242ZM77.4375 39.7242C77.4375 42.1663 75.2699 44.1442 72.5938 44.1442H63.7176L67.9316 37.6025C68.852 36.1771 70.523 35.3041 72.3273 35.3041H72.5938C75.2699 35.3041 77.4375 37.2821 77.4375 39.7242ZM32.875 58.513V81.2729C32.875 84.2011 35.4785 86.5769 38.6875 86.5769H63.875V58.513H32.875ZM63.875 86.5769H81.3125C84.5215 86.5769 87.125 84.2011 87.125 81.2729V58.513H63.875V86.5769Z" fill="white"/>
<path d="M64.2259 65.6133C62.3839 65.6133 60.7934 66.5976 59.9941 68.0334C59.1947 66.5976 57.6042 65.6133 55.7622 65.6133C53.1218 65.6133 50.9824 67.6338 50.9824 70.1205C50.9824 72.6073 52.6198 74.8868 54.7358 76.7593C56.8517 78.6317 59.9941 80.4154 59.9941 80.4154C59.9941 80.4154 63.0346 78.6613 65.2523 76.7593C67.6179 74.7314 69.0057 72.6147 69.0057 70.1205C69.0057 67.6264 66.8663 65.6133 64.2259 65.6133Z" fill="#B1E551"/>
<defs>
<filter id="filter0_d_2375_1277" x="0" y="0" width="124" height="124" filterUnits="userSpaceOnUse" color-interpolation-filters="sRGB">
<feFlood flood-opacity="0" result="BackgroundImageFix"/>
<feColorMatrix in="SourceAlpha" type="matrix" values="0 0 0 0 0 0 0 0 0 0 0 0 0 0 0 0 0 0 127 0" result="hardAlpha"/>
<feOffset dx="2" dy="2"/>
<feGaussianBlur stdDeviation="1"/>
<feComposite in2="hardAlpha" operator="out"/>
<feColorMatrix type="matrix" values="0 0 0 0 0 0 0 0 0 0 0 0 0 0 0 0 0 0 0.25 0"/>
<feBlend mode="normal" in2="BackgroundImageFix" result="effect1_dropShadow_2375_1277"/>
<feBlend mode="normal" in="SourceGraphic" in2="effect1_dropShadow_2375_1277" result="shape"/>
</filter>
</defs>
</svg>
