<svg width="124" height="124" viewBox="0 0 124 124" fill="none" xmlns="http://www.w3.org/2000/svg">
<g filter="url(#filter0_d_2375_1279)">
<circle cx="60" cy="60" r="60" fill="#C1A7F7"/>
<circle cx="60" cy="60" r="56" stroke="#9B75EE" stroke-width="8"/>
</g>
<path d="M86.7767 34.229C84.9176 32.3914 82.4735 31.2633 79.8691 31.0406C77.2646 30.818 74.6645 31.515 72.5205 33.0104C79.4122 35.8797 85.042 41.132 88.3822 47.8082C89.6715 45.6912 90.214 43.2031 89.9229 40.7415C89.6319 38.28 88.5241 35.987 86.7767 34.229Z" fill="white"/>
<path d="M47.9934 33.4348C45.8583 31.7391 43.1764 30.8836 40.4538 31.0297C37.7312 31.1758 35.1563 32.3135 33.215 34.2279C31.2897 36.166 30.1494 38.7478 30.0137 41.4762C29.878 44.2046 30.7564 46.8868 32.4799 49.0064C35.5836 42.1008 41.0995 36.5643 47.9934 33.4348Z" fill="white"/>
<path d="M60.7213 34.5391C55.3745 34.5501 50.1506 36.1437 45.708 39.1189C41.2655 42.0941 37.8031 46.3179 35.7572 51.2578C33.7113 56.1977 33.1735 61.6327 34.2116 66.8777C35.2497 72.1228 37.8172 76.9432 41.5905 80.7314L36.6579 85.664C36.4789 85.8469 36.3376 86.0632 36.2421 86.3007C36.1466 86.5383 36.0989 86.7922 36.1016 87.0482C36.1043 87.3042 36.1573 87.5571 36.2578 87.7925C36.3582 88.028 36.5041 88.2413 36.687 88.4204C36.8699 88.5995 37.0862 88.7408 37.3237 88.8363C37.5613 88.9317 37.8152 88.9795 38.0712 88.9768C38.3272 88.9741 38.5801 88.921 38.8155 88.8206C39.051 88.7201 39.2643 88.5743 39.4434 88.3914L44.5888 83.246C49.2942 86.8067 55.0402 88.7206 60.9409 88.6927C66.8416 88.6647 72.5692 86.6964 77.2406 83.0913L82.5408 88.3914C82.9108 88.7083 83.3868 88.8739 83.8736 88.8551C84.3605 88.8363 84.8223 88.6345 85.1668 88.29C85.5113 87.9455 85.7131 87.4837 85.7319 86.9968C85.7507 86.51 85.5851 86.034 85.2682 85.664L80.0648 80.5379C83.7851 76.7273 86.2992 71.9043 87.2928 66.6723C88.2863 61.4403 87.7152 56.0314 85.6508 51.1223C83.5864 46.2131 80.1204 42.0217 75.6863 39.0721C71.2522 36.1225 66.0468 34.5457 60.7213 34.5391Z" fill="white"/>
<path d="M65.0079 54.3828C63.1263 54.3828 61.5015 55.4847 60.685 57.092C59.8685 55.4847 58.2437 54.3828 56.3621 54.3828C53.6649 54.3828 51.4795 56.6446 51.4795 59.4283C51.4795 62.2121 53.1521 64.7638 55.3136 66.8599C57.475 68.956 60.685 70.9527 60.685 70.9527C60.685 70.9527 63.7909 68.9892 66.0564 66.8599C68.4728 64.5899 69.8905 62.2204 69.8905 59.4283C69.8905 56.6363 67.7051 54.3828 65.0079 54.3828Z" fill="#C1A7F7"/>
<defs>
<filter id="filter0_d_2375_1279" x="0" y="0" width="124" height="124" filterUnits="userSpaceOnUse" color-interpolation-filters="sRGB">
<feFlood flood-opacity="0" result="BackgroundImageFix"/>
<feColorMatrix in="SourceAlpha" type="matrix" values="0 0 0 0 0 0 0 0 0 0 0 0 0 0 0 0 0 0 127 0" result="hardAlpha"/>
<feOffset dx="2" dy="2"/>
<feGaussianBlur stdDeviation="1"/>
<feComposite in2="hardAlpha" operator="out"/>
<feColorMatrix type="matrix" values="0 0 0 0 0 0 0 0 0 0 0 0 0 0 0 0 0 0 0.25 0"/>
<feBlend mode="normal" in2="BackgroundImageFix" result="effect1_dropShadow_2375_1279"/>
<feBlend mode="normal" in="SourceGraphic" in2="effect1_dropShadow_2375_1279" result="shape"/>
</filter>
</defs>
</svg>
