<svg width="359" height="220" viewBox="0 0 359 220" fill="none" xmlns="http://www.w3.org/2000/svg">
<path d="M129.866 118.295C133.517 108.732 140.348 101.06 148.746 95.7777M148.746 95.7777C150.1 94.9259 151.495 94.1363 152.924 93.4109M148.746 95.7777C148.175 102.595 148.493 109.642 149.543 116.558M148.746 95.7777C148.94 93.4594 149.237 91.1677 149.643 88.9167M152.924 93.4109C153.203 93.2695 153.483 93.1305 153.764 92.9939M152.924 93.4109C151.385 98.0428 150.422 102.855 150.074 107.656C149.87 110.468 149.754 113.353 149.729 116.29M152.924 93.4109C153.037 93.0705 153.154 92.731 153.273 92.3925M153.764 92.9939C154.614 92.581 155.476 92.1905 156.348 91.8229M153.764 92.9939C153.604 92.7907 153.44 92.5902 153.273 92.3925M153.764 92.9939C154.226 93.5802 154.658 94.1898 155.058 94.8234C159.389 101.685 153.559 110.755 149.745 116.266C149.74 116.274 149.734 116.282 149.729 116.29M156.348 91.8229C158.626 90.8623 160.972 90.0582 163.362 89.4182M156.348 91.8229C160.927 97.5935 166.495 102.117 172.692 104.311C175.321 105.242 177.873 105.649 180.307 105.622M156.348 91.8229C155.699 91.0058 155.071 90.1638 154.463 89.2998M163.362 89.4182C164.725 89.0534 166.101 88.7419 167.487 88.4851M163.362 89.4182C161.799 88.6243 160.164 87.9517 158.453 87.42C157.537 87.1354 156.597 86.8883 155.637 86.6757M163.362 89.4182C170.355 92.9701 175.901 98.9515 180.307 105.622M167.487 88.4851C168.614 88.2764 169.747 88.1039 170.884 87.9684C176.651 87.281 182.004 87.8126 186.662 89.4847M167.487 88.4851C163.814 87.3051 160.065 86.285 156.26 85.4108M167.487 88.4851C171.856 89.8885 176.12 91.518 180.249 93.3976C182.331 94.345 184.707 95.4406 186.93 96.7989M186.662 89.4847C189.883 90.6415 192.772 92.3441 195.235 94.5666M186.662 89.4847C186.494 91.7638 186.573 94.1986 186.93 96.7977L186.93 96.7989M186.662 89.4847C187.189 82.324 190.161 76.7008 194.654 72.3485M195.235 94.5666C195.727 95.0113 196.203 95.4769 196.661 95.9631M195.235 94.5666C194.707 96.4635 194.265 98.4017 193.9 100.368M195.235 94.5666C195.826 92.4371 196.524 90.3597 197.335 88.3523C197.938 86.8611 198.61 85.4567 199.346 84.1349M196.661 95.9631C196.91 96.2281 197.155 96.4992 197.393 96.7765M196.661 95.9631C195.976 97.1328 195.352 98.3368 194.796 99.5749M196.661 95.9631C197.755 94.0941 199.005 92.3125 200.386 90.6189M197.393 96.7765C198.276 97.8015 199.085 98.9097 199.814 100.099M197.393 96.7765C198.579 95.2976 199.608 93.6954 200.455 92.0199M197.393 96.7765C196.597 97.77 195.728 98.7079 194.796 99.5749M199.814 100.099C200.72 101.579 201.502 103.184 202.148 104.912M199.814 100.099C200.312 97.4511 200.537 94.7503 200.455 92.0199M199.814 100.099C198.698 106.04 196.215 111.716 192.771 116.87M202.148 104.912C202.953 107.065 203.547 109.407 203.907 111.934C205.016 119.708 204.662 127.173 202.981 134.112M202.148 104.912C196.567 110.182 194.971 116.019 195.411 122.384M202.148 104.912C202.696 104.396 203.281 103.884 203.907 103.379C204.677 102.756 205.502 102.146 206.376 101.55M202.981 134.112C202.598 135.694 202.145 137.249 201.626 138.774M202.981 134.112C203.367 134.598 203.76 135.076 204.158 135.546M202.981 134.112C200.122 130.523 197.586 126.536 195.411 122.384M201.626 138.774C201.574 138.926 201.522 139.077 201.469 139.228M201.626 138.774C201.662 138.789 201.699 138.804 201.736 138.818M201.626 138.774C200.663 138.381 199.743 137.864 198.881 137.201M201.469 139.228C201.167 140.087 200.844 140.937 200.5 141.777M201.469 139.228C201.053 139.876 200.658 140.534 200.285 141.201M201.469 139.228C201.557 139.091 201.646 138.954 201.736 138.818M200.5 141.777C199.721 143.677 198.833 145.524 197.84 147.315M200.5 141.777C201.762 145.141 203.161 148.402 204.771 151.538M200.5 141.777C200.428 141.585 200.356 141.393 200.285 141.201M197.84 147.315C197.628 147.698 197.411 148.078 197.189 148.455M197.84 147.315C198.71 149.85 199.697 152.39 200.798 154.896M197.84 147.315C197.793 147.179 197.747 147.043 197.701 146.907M197.189 148.455C196.936 148.887 196.676 149.314 196.41 149.739M197.189 148.455C196.961 149.199 196.756 149.951 196.574 150.709M197.189 148.455C197.348 147.935 197.519 147.419 197.701 146.907M196.41 149.739C192.903 155.336 188.319 160.315 182.771 164.494M196.41 149.739C194.785 140.279 192.449 131.004 188.827 122.07M196.41 149.739C196.466 150.062 196.52 150.385 196.574 150.709M182.771 164.494C180.78 165.994 178.665 167.391 176.43 168.677M182.771 164.494C187.208 163.118 191.485 161.123 195.524 158.598M182.771 164.494C179.905 165.383 176.972 166.013 173.994 166.36M176.43 168.677C174.305 169.901 172.071 171.024 169.734 172.039C166.999 173.227 164.218 174.169 161.403 174.899M176.43 168.677C183.28 174.921 191.249 179.962 199.923 182.358M176.43 168.677C175.602 167.922 174.789 167.148 173.994 166.36M161.403 174.899C159.086 175.499 156.745 175.956 154.388 176.285M161.403 174.899C162.131 176.496 162.894 178.064 163.693 179.599M161.403 174.899C159.997 171.812 158.723 168.616 157.579 165.34M154.388 176.285C148.099 177.163 141.694 177.138 135.303 176.546M154.388 176.285C157.541 177.525 160.657 178.63 163.693 179.599M154.388 176.285C147.321 173.505 140.073 170.052 133.147 165.964M135.303 176.546C129.214 175.983 123.138 174.905 117.186 173.605M135.303 176.546C134.918 172.886 134.278 169.288 133.147 165.964M135.303 176.546C135.406 177.527 135.491 178.512 135.562 179.497C135.74 181.982 136.165 184.999 136.143 187.932M117.186 173.605C116.004 173.347 114.827 173.08 113.656 172.806C112.531 172.544 111.423 172.271 110.332 171.988M117.186 173.605C118.594 175.777 120.045 177.927 121.539 180.054M117.186 173.605C115.556 171.089 113.984 168.544 112.474 165.971M110.332 171.988C110.265 171.971 110.198 171.954 110.131 171.936M110.332 171.988C113.931 174.898 117.684 177.599 121.539 180.054M110.332 171.988C110.277 171.944 110.221 171.899 110.166 171.854M110.131 171.936C109.422 171.751 108.719 171.561 108.023 171.367M110.131 171.936C110.143 171.909 110.154 171.881 110.166 171.854M110.131 171.936C108.459 175.905 106.469 180.094 104.135 184.13M108.023 171.367C101.745 169.614 96.0305 167.484 90.7848 164.859M108.023 171.367C108.167 171.057 108.307 170.745 108.445 170.432M108.023 171.367C106.511 174.646 104.721 177.745 102.648 180.594C102.383 180.958 102.114 181.31 101.842 181.649M90.7848 164.859C87.5434 163.237 84.4809 161.426 81.5742 159.397M90.7848 164.859C93.2864 170.788 97.2048 176.442 101.842 181.649M90.7848 164.859C90.1812 163.429 89.66 161.982 89.2312 160.522C89.0395 159.87 88.9191 159.252 88.8644 158.667M81.5742 159.397C77.2871 156.405 73.3392 152.939 69.6574 148.91M81.5742 159.397C83.9809 159.312 86.4145 159.069 88.8644 158.667M81.5742 159.397C70.0464 159.803 59.1386 156.57 50.0386 149.664M69.6574 148.91C65.8057 144.694 62.2451 139.862 58.8919 134.308C54.4511 126.954 50.3031 118.513 47.5906 109.895M69.6574 148.91C74.9196 147.891 79.9881 145.835 84.5947 143.095M69.6574 148.91C66.5382 149.514 63.3509 149.753 60.1515 149.554C56.2043 149.309 52.4975 148.344 49.0176 146.832M47.5906 109.895C46.4265 106.196 45.5267 102.464 44.9818 98.7719C44.6394 96.4519 44.9352 94.54 45.6976 92.9568M47.5906 109.895C45.1637 111.299 42.8965 112.902 40.8383 114.711M47.5906 109.895C53.7269 106.343 60.8845 104.054 68.268 102.857M45.6976 92.9568C47.8738 88.4372 53.8518 86.5952 59.6389 85.5781M45.6976 92.9568C44.4266 93.2165 43.1493 93.5097 41.878 93.843M45.6976 92.9568C47.9284 92.5009 50.1397 92.148 52.2654 91.8621C55.0995 91.4808 58.1351 91.1686 61.2659 90.9995M59.6389 85.5781C61.6849 85.2186 63.707 84.9622 65.5289 84.727M59.6389 85.5781C60.0997 87.4182 60.6383 89.2393 61.2659 90.9995M59.6389 85.5781C59.5506 85.2255 59.4652 84.8721 59.3825 84.5183M65.5289 84.727C66.2342 84.6359 66.9096 84.548 67.5446 84.4586C68.2076 84.3652 68.8729 84.2731 69.5404 84.1824M65.5289 84.727C63.4805 84.5614 61.4269 84.4923 59.3825 84.5183M65.5289 84.727C66.7729 84.8275 68.0151 84.9637 69.252 85.1357M69.5404 84.1824C75.299 83.3991 81.2201 82.7151 87.2409 82.1824M69.5404 84.1824C69.4396 84.4982 69.3434 84.816 69.252 85.1357M69.5404 84.1824C71.5362 77.9301 75.355 72.4282 80.1303 67.672M87.2409 82.1824C92.09 81.7534 97.0038 81.4225 101.949 81.2169M87.2409 82.1824C87.3621 83.5597 87.4923 84.9254 87.6291 86.2765M87.2409 82.1824C86.8181 77.3784 86.5041 72.4333 86.3958 67.4719M101.949 81.2169C104.602 81.1067 107.264 81.0325 109.929 80.9986M101.949 81.2169C101.478 81.3065 101.017 81.4 100.567 81.4972C96.3974 82.4001 91.8257 83.9927 87.6291 86.2765M101.949 81.2169C104.459 80.7409 107.277 80.3778 110.281 80.1653M109.929 80.9986C110.248 80.9946 110.567 80.9911 110.887 80.9882M109.929 80.9986C110.05 80.7195 110.167 80.4417 110.281 80.1653M109.929 80.9986C107.419 86.8034 103.418 93.1533 98.4795 98.1933M110.887 80.9882C112.555 80.9731 114.224 80.9739 115.894 80.9917M110.887 80.9882C110.737 81.3854 110.602 81.7927 110.48 82.2102C109.355 86.0609 109.023 90.1996 109.268 94.4268M110.887 80.9882C111 80.6873 111.12 80.3921 111.248 80.1025M115.894 80.9917C117.333 81.007 118.772 81.035 120.21 81.0762M115.894 80.9917C115.577 80.6418 115.257 80.2992 114.934 79.9638M115.894 80.9917C116.627 81.8005 117.344 82.6481 118.045 83.5349M120.21 81.0762C124.83 81.2086 129.443 81.478 134.023 81.9061M120.21 81.0762C119.459 81.8694 118.736 82.6896 118.045 83.5349M120.21 81.0762C120.527 80.7413 120.848 80.4113 121.175 80.0862M134.023 81.9061C137.418 82.2235 140.795 82.6282 144.142 83.129M134.023 81.9061C129.854 80.9054 125.477 80.3276 121.175 80.0862M134.023 81.9061C137.036 82.6293 139.941 83.5734 142.63 84.7709M144.142 83.129C146.329 83.4561 148.503 83.8242 150.662 84.2359M144.142 83.129C143.629 83.6694 143.124 84.2168 142.63 84.7709M144.142 83.129C145.551 81.6472 147.03 80.2169 148.569 78.8405M150.662 84.2359C150.891 84.2797 151.121 84.3239 151.35 84.3686M150.662 84.2359C150.525 84.7689 150.395 85.3049 150.271 85.8438M150.662 84.2359C150.726 83.9852 150.792 83.7352 150.86 83.4859M151.35 84.3686C152.996 84.6901 154.633 85.0371 156.26 85.4108M151.35 84.3686C151.678 84.9488 152.015 85.5226 152.361 86.0894M151.35 84.3686C151.184 84.076 151.021 83.7817 150.86 83.4859M156.26 85.4108C156.047 85.8298 155.839 86.2515 155.637 86.6757M156.26 85.4108C159.567 78.9026 164.117 73.0519 169.789 68.5001C171.551 67.086 173.408 65.8284 175.342 64.7106M186.93 96.7989C189.045 98.0905 191.021 99.6196 192.475 101.485M186.93 96.7989C187.242 99.0642 187.707 101.44 188.318 103.877M192.475 101.485C192.841 101.955 193.174 102.447 193.468 102.961M192.475 101.485C192.963 101.131 193.439 100.758 193.9 100.368M192.475 101.485C191.178 102.424 189.788 103.231 188.318 103.877M193.468 102.961C193.469 102.963 193.471 102.965 193.472 102.967M193.468 102.961C193.467 102.972 193.465 102.982 193.463 102.992M193.468 102.961C193.597 102.092 193.741 101.228 193.9 100.368M193.472 102.967C193.785 103.516 194.053 104.092 194.269 104.695C195.638 108.52 194.65 112.393 192.567 116.017M193.472 102.967C193.469 102.976 193.466 102.984 193.463 102.992M193.472 102.967C193.857 101.81 194.3 100.679 194.796 99.5749M192.567 116.017C192.536 116.071 192.505 116.125 192.473 116.178M192.567 116.017C192.567 116.146 192.568 116.274 192.569 116.403M192.567 116.017C192.547 111.655 192.828 107.271 193.463 102.992M192.473 116.178C192.205 116.637 191.92 117.091 191.62 117.541M192.473 116.178C192.505 116.253 192.537 116.328 192.569 116.403M192.473 116.178C192.179 115.488 191.896 114.796 191.622 114.104M191.62 117.541C190.716 118.895 189.678 120.207 188.577 121.46M191.62 117.541C191.629 117.85 191.642 118.161 191.657 118.473M191.62 117.541C191.583 116.367 191.586 115.215 191.622 114.104M188.577 121.46C185.495 124.969 181.915 128.018 179.373 130.25C177.81 131.622 176.179 132.979 174.486 134.31M188.577 121.46C187.957 119.956 187.299 118.462 186.602 116.979C184.815 113.178 182.734 109.295 180.307 105.622M188.577 121.46C188.661 121.663 188.745 121.867 188.827 122.07M174.486 134.31C169.564 138.181 164.13 141.834 158.389 145.011M174.486 134.31C179.819 131.025 184.737 126.858 188.827 122.07M174.486 134.31C171.167 136.354 167.688 138.057 164.148 139.354C162.081 140.111 159.565 141.005 156.869 141.782M158.389 145.011C156.558 146.025 154.695 146.991 152.807 147.9M158.389 145.011C160.195 148.648 162.201 152.021 164.368 155.038C167.184 158.962 170.416 162.814 173.994 166.36M158.389 145.011C157.866 143.956 157.359 142.879 156.869 141.782M152.807 147.9C147.914 150.256 142.857 152.23 137.751 153.678M152.807 147.9C154.025 153.843 155.61 159.708 157.579 165.34M152.807 147.9C152.474 146.271 152.168 144.637 151.89 143M137.751 153.678C134.161 154.696 130.548 155.453 126.951 155.9M137.751 153.678C142.069 158.147 146.958 161.788 152.538 163.813C154.218 164.422 155.899 164.93 157.579 165.34M137.751 153.678C133.835 149.625 130.389 144.89 127.326 140.062M126.951 155.9C124.33 156.225 121.719 156.385 119.132 156.36M126.951 155.9C125.148 154.2 122.97 152.755 120.337 151.638C119.411 151.245 118.168 150.874 116.712 150.552M126.951 155.9C129.901 158.68 131.848 162.141 133.147 165.964M119.132 156.36C117.895 156.349 116.664 156.295 115.44 156.196M119.132 156.36C123.524 159.87 128.255 163.075 133.147 165.964M119.132 156.36C118.075 155.516 117.038 154.654 116.024 153.775M115.44 156.196C114.593 156.128 113.749 156.039 112.909 155.928M115.44 156.196C115.641 155.401 115.836 154.593 116.024 153.775M115.44 156.196C114.54 159.751 113.514 163.066 112.474 165.971M112.909 155.928C110.664 155.63 108.448 155.176 106.273 154.551M112.909 155.928C113.184 154.499 113.417 153.059 113.608 151.61M112.909 155.928C112.417 158.49 111.792 161.014 111.033 163.475M106.273 154.551C105.682 154.381 105.094 154.199 104.509 154.004M106.273 154.551C107.778 157.561 109.366 160.536 111.033 163.475M106.273 154.551C106.091 154.188 105.911 153.825 105.732 153.461M104.509 154.004C101.805 153.101 99.1689 151.924 96.6217 150.445M104.509 154.004C104.917 153.827 105.325 153.646 105.732 153.461M104.509 154.004C101.371 155.362 98.2219 156.466 95.0843 157.315M96.6217 150.445C92.9486 148.313 89.4611 145.553 86.2237 142.086M96.6217 150.445C94.5522 150.986 92.7403 151.767 91.3858 152.84M96.6217 150.445C98.8131 149.872 101.293 149.568 103.825 149.467M86.2237 142.086C84.8031 140.564 83.4307 138.906 82.1119 137.105C81.0082 135.598 79.9508 134.001 78.9465 132.33M86.2237 142.086C86.3871 141.98 86.5499 141.874 86.712 141.767C90.3195 139.383 93.9457 136.065 96.8881 132.211M86.2237 142.086C85.6876 142.431 85.1444 142.768 84.5947 143.095M78.9465 132.33C73.8109 123.785 70.0663 113.322 68.6424 103.214M78.9465 132.33C80.0993 134.954 81.3574 137.463 82.6595 139.793C83.2793 140.901 83.9247 142.003 84.5947 143.095M78.9465 132.33C75.3412 124.122 72.7665 114.779 73.0999 106.215M68.6424 103.214C68.6232 103.078 68.6044 102.942 68.5861 102.807M68.6424 103.214C69.9752 104.452 71.4559 105.471 73.0999 106.215M68.6424 103.214C68.5163 103.097 68.3915 102.978 68.268 102.857M68.5861 102.807C68.1315 99.4344 67.9371 96.1053 68.0375 92.904C68.0588 92.2238 68.1015 91.5508 68.1647 90.885M68.5861 102.807C68.48 102.823 68.374 102.84 68.268 102.857M68.5861 102.807C70.2618 102.542 71.9484 102.334 73.6369 102.181M68.1647 90.885C68.3528 88.9042 68.7224 86.9878 69.252 85.1357M68.1647 90.885C65.8421 90.8298 63.5291 90.8772 61.2659 90.9995M68.1647 90.885C72.0083 90.9765 75.8782 91.3495 79.5926 92.1307M69.252 85.1357C74.1395 85.8154 78.9461 87.0551 83.4719 88.8726M80.1303 67.672C82.0691 65.7408 84.1657 63.9326 86.3619 62.247M80.1303 67.672C76.6388 67.9876 73.0569 68.6372 69.4066 69.5969C65.3134 70.673 61.3232 72.2481 57.6857 74.3344M80.1303 67.672C82.2538 67.48 84.344 67.4115 86.3958 67.4719M86.3619 62.247C92.1288 57.821 98.5829 54.2404 104.675 51.4996C105.696 51.0402 106.734 50.5918 107.787 50.1548M86.3619 62.247C86.3451 63.9871 86.3578 65.7305 86.3958 67.4719M86.3619 62.247C86.4477 53.3833 87.2998 44.6073 89.4717 36.6321M107.787 50.1548C119.316 45.3741 132.733 41.9609 146.634 40.4493M107.787 50.1548C104.94 46.2261 101.046 42.8002 96.2958 39.9831C94.0991 38.6804 91.8177 37.5729 89.4717 36.6321M107.787 50.1548C113.083 57.4628 114.757 66.5106 111.575 76.6164C111.558 76.6699 111.541 76.7234 111.524 76.777M146.634 40.4493C149.895 40.0947 153.182 39.8447 156.478 39.7063M146.634 40.4493C145.469 42.9666 144.574 45.6638 143.995 48.5382C143.002 53.4708 143.125 59.074 144.181 64.798M146.634 40.4493C147.237 39.1475 147.911 37.8939 148.652 36.6887M156.478 39.7063C171.84 39.0609 187.386 40.8381 201.28 45.7356M156.478 39.7063C153.902 38.5921 151.287 37.5859 148.652 36.6887M156.478 39.7063C163.997 42.9594 171.174 47.1334 177.494 52.2039M201.28 45.7356C202.714 46.2409 204.13 46.7794 205.526 47.3519M201.28 45.7356C201.167 46.3616 201.061 46.9904 200.963 47.6218M201.28 45.7356C202.79 37.4045 205.646 29.5637 210.266 22.7884M205.526 47.3519C207.236 48.0531 208.917 48.8052 210.565 49.6097M205.526 47.3519C204.017 47.4254 202.494 47.5127 200.963 47.6218M205.526 47.3519C207.011 47.2796 208.481 47.2205 209.931 47.1672C210.414 47.1495 210.895 47.1335 211.376 47.1193M210.565 49.6097C213.864 51.2205 217.03 53.0412 220.034 55.0832M210.565 49.6097C210.835 48.7991 211.108 47.9673 211.376 47.1193M210.565 49.6097C210.273 50.4859 209.985 51.3373 209.712 52.1577M220.034 55.0832C220.536 55.4248 221.034 55.7725 221.527 56.1264M220.034 55.0832C213.43 54.9226 206.714 55.3515 200.074 56.1718M220.034 55.0832C228.456 55.288 236.697 56.4515 244.37 58.9839M221.527 56.1264C223.164 57.3011 224.749 58.5445 226.278 59.8586M221.527 56.1264C221.131 56.1169 220.734 56.1102 220.336 56.1062C213.801 56.0407 206.87 56.2154 200.028 57.0848M221.527 56.1264C228.762 56.3001 235.702 57.3938 242.186 59.3612M226.278 59.8586C227.609 61.0033 228.897 62.2016 230.139 63.4548C230.744 64.0647 231.33 64.6796 231.898 65.2992M226.278 59.8586C216.905 60.9257 207.447 63.4575 200.115 68.0926M226.278 59.8586C231.757 59.2348 237.207 59.1115 242.186 59.3612M231.898 65.2992C233.127 66.6407 234.271 68.0042 235.334 69.388M231.898 65.2992C224.558 66.1018 217.61 67.9856 211.704 71.4802M231.898 65.2992C233.414 65.1333 234.947 65.0137 236.492 64.9355C239.377 64.7894 242.245 64.7856 245.082 64.926M235.334 69.388C239.013 74.1795 241.711 79.2128 243.569 84.4081M235.334 69.388C230.756 70.6805 226.068 72.4258 221.542 74.6178M235.334 69.388C236.328 69.1072 237.318 68.8478 238.299 68.6098C240.447 68.0889 242.802 67.5276 245.234 67.0701M243.569 84.4081C243.686 84.7348 243.799 85.0621 243.909 85.3901M243.569 84.4081C236.258 80.4298 228.719 77.1637 221.542 74.6178M243.569 84.4081C243.873 84.5736 244.177 84.7402 244.48 84.9081M243.909 85.3901C244.025 85.7351 244.138 86.0808 244.246 86.4271M243.909 85.3901C241.795 87.0377 239.835 88.9392 238.061 91.0905M243.909 85.3901C244.096 85.2449 244.283 85.1016 244.472 84.9603M244.246 86.4271C244.727 87.9594 245.137 89.5047 245.481 91.0609M244.246 86.4271C244.326 85.9407 244.401 85.4517 244.472 84.9603M244.246 86.4271C243.995 87.968 243.704 89.4831 243.375 90.9657M245.481 91.0609C246.305 94.7943 246.743 98.5908 246.844 102.423M245.481 91.0609C244.783 91.0146 244.081 90.983 243.375 90.9657M245.481 91.0609C249.331 91.3163 253.031 92.0198 256.405 93.2572M246.844 102.423C246.992 108.048 246.415 113.75 245.263 119.44M246.844 102.423C243.11 107.304 240.586 112.986 239.868 119.422M246.844 102.423C249.493 98.9596 252.751 95.899 256.405 93.2572M245.263 119.44C245.151 119.994 245.034 120.548 244.911 121.102M245.263 119.44C249.397 115.464 253.246 111.25 256.809 107.108C259.086 104.461 261.642 101.511 264.083 98.3485M245.263 119.44C244.844 119.844 244.421 120.245 243.996 120.643M244.911 121.102C244.033 125.06 242.884 129.009 241.516 132.918M244.911 121.102C244.611 120.937 244.306 120.784 243.996 120.643M244.911 121.102C246.393 121.915 247.746 123.011 248.923 124.437C249.27 124.857 249.599 125.293 249.911 125.743M241.516 132.918C241.508 132.941 241.5 132.964 241.492 132.987M241.516 132.918C242.714 132.735 243.884 132.435 245.025 132.038M241.516 132.918C241.5 132.921 241.483 132.923 241.467 132.926M241.492 132.987C239.504 138.66 237.055 144.25 234.303 149.667M241.492 132.987C241.941 134.065 242.465 135.088 243.057 136.056M241.492 132.987C241.484 132.967 241.475 132.946 241.467 132.926M234.303 149.667C233.908 150.445 233.506 151.22 233.099 151.99M234.303 149.667C236.625 149.361 239.006 148.754 241.441 147.812M234.303 149.667C233.696 149.747 233.094 149.807 232.495 149.847M233.099 151.99C229.413 158.964 225.254 165.623 220.967 171.77M233.099 151.99C235.329 159.533 238.599 166.731 243.314 172.887M233.099 151.99C232.888 151.279 232.687 150.564 232.495 149.847M220.967 171.77C219.887 173.319 218.799 174.835 217.708 176.316C217.28 176.897 216.848 177.481 216.412 178.068M220.967 171.77C224.266 174.549 227.812 177.058 231.535 179.169M220.967 171.77C219.244 170.318 217.588 168.793 216.01 167.213C211.29 162.486 207.686 157.217 204.771 151.538M216.412 178.068C214.989 179.982 213.522 181.921 212.005 183.855M216.412 178.068C218.13 179.678 219.938 181.137 221.835 182.416M216.412 178.068C209.868 171.936 204.636 163.629 200.798 154.896M212.005 183.855C211.508 184.488 211.006 185.121 210.498 185.751M212.005 183.855C213.402 183.814 214.81 183.697 216.229 183.5C218.102 183.24 219.973 182.875 221.835 182.416M212.005 183.855C208.304 183.964 204.687 183.543 201.18 182.685M210.498 185.751C209.089 187.502 207.636 189.239 206.136 190.939M210.498 185.751C215.008 185.401 219.436 184.701 223.648 183.565M210.498 185.751C207.98 185.947 205.436 186.033 202.89 186.026M206.136 190.939C203.984 193.377 201.733 195.738 199.371 197.952M206.136 190.939C208.499 193.914 211.272 196.178 214.443 196.913M206.136 190.939C204.95 189.446 203.867 187.774 202.89 186.026M199.371 197.952C197.28 199.912 195.101 201.756 192.826 203.435M199.371 197.952C204.439 197.755 209.476 197.393 214.443 196.913M199.371 197.952C198.439 197.988 197.506 198.019 196.572 198.044M192.826 203.435C190.806 204.925 188.71 206.286 186.531 207.483M192.826 203.435C194.274 201.858 195.534 200.067 196.572 198.044M192.826 203.435C191.18 205.228 189.291 206.743 187.214 208.008M186.531 207.483C185.233 208.196 183.907 208.851 182.549 209.44C162.474 218.153 146.888 209.531 134.077 195.83M186.531 207.483C186.757 207.66 186.985 207.834 187.214 208.008M186.531 207.483C182.719 204.518 179.201 201.117 176.039 197.535M134.077 195.83C129.771 191.225 125.779 186.046 122.035 180.758C121.869 180.524 121.704 180.289 121.539 180.054M134.077 195.83C135.66 193.683 136.122 190.849 136.143 187.932M134.077 195.83C133.692 196.352 133.241 196.833 132.714 197.265C130.522 199.061 127.701 200.286 124.644 201.114M121.539 180.054C126.282 183.076 131.182 185.725 136.143 187.932M112.474 165.971C111.987 165.142 111.507 164.31 111.033 163.475M112.474 165.971C112.211 166.704 111.947 167.412 111.684 168.09C111.211 169.313 110.705 170.572 110.166 171.854M111.033 163.475C110.297 165.86 109.435 168.186 108.445 170.432M105.732 153.461C105.081 152.137 104.445 150.805 103.825 149.467M105.732 153.461C106.549 153.09 107.365 152.702 108.18 152.296C109.509 151.634 110.83 150.94 112.139 150.215M103.825 149.467C101.217 143.833 98.8979 138.078 96.8881 132.211M103.825 149.467C106.47 149.362 109.172 149.479 111.659 149.746M96.8881 132.211C93.8448 123.326 91.5118 114.182 89.9634 104.802M96.8881 132.211C97.2179 131.779 97.5391 131.34 97.8507 130.895M89.9634 104.802C89.8259 103.969 89.6947 103.135 89.5697 102.299M89.9634 104.802C91.0616 104.204 92.1364 103.524 93.184 102.774M89.9634 104.802C86.8153 106.515 83.4746 107.548 80.0308 107.601C77.4476 107.641 75.1471 107.142 73.0999 106.215M89.5697 102.299C89.389 101.09 89.2214 99.8782 89.0669 98.6623C88.9182 97.4919 88.769 96.2998 88.6211 95.0885M89.5697 102.299C84.4425 101.75 79.0308 101.689 73.6369 102.181M89.5697 102.299C90.792 102.43 91.9981 102.588 93.184 102.774M88.6211 95.0885C88.4579 93.7506 88.2963 92.3893 88.1391 91.0081M88.6211 95.0885C85.7989 93.7551 82.752 92.7952 79.5926 92.1307M88.6211 95.0885C91.44 96.4202 94.0348 98.1245 96.294 100.279M88.1391 91.0081C87.9623 89.4545 87.791 87.8757 87.6291 86.2765M88.1391 91.0081C86.624 90.2241 85.0654 89.5125 83.4719 88.8726M88.1391 91.0081C91.8985 92.9533 95.3898 95.3444 98.4795 98.1933M87.6291 86.2765C86.1887 87.0604 84.7925 87.9258 83.4719 88.8726M86.3958 67.4719C95.7174 67.7464 104.247 70.6809 111.524 76.777M89.4717 36.6321C89.8678 35.1779 90.3077 33.7503 90.7949 32.3536M89.4717 36.6321C87.1818 35.7138 84.8303 34.9542 82.436 34.3266M90.7949 32.3536C91.2838 30.9522 91.8202 29.582 92.4075 28.2473C98.2366 15.0014 112.496 9.92553 125.485 6.85956C146.265 1.95456 167.219 2.55248 187.916 7.57249C196.974 9.76957 206.5 12.5151 215.04 16.8567M90.7949 32.3536C87.9308 32.8605 85.1267 33.51 82.436 34.3266M90.7949 32.3536C103.05 30.1846 116.406 30.6261 126.69 31.7571C133.865 32.5462 141.334 34.1971 148.652 36.6887M215.04 16.8567C222.418 20.6078 229.06 25.5505 234.027 32.3603C237.832 37.5758 240.596 43.6683 242.444 50.1644M215.04 16.8567C213.273 18.722 211.686 20.7048 210.266 22.7884M215.04 16.8567C217.837 13.9019 221.084 11.242 224.827 8.9435C241.752 -1.44864 271.651 -0.341269 286.382 13.3856C300.802 26.8229 302.587 50.6553 299.525 69.0485C299.505 69.1683 299.485 69.2886 299.464 69.4094M242.444 50.1644C243.262 53.0389 243.9 55.9923 244.37 58.9839M242.444 50.1644C232.454 47.4103 222.064 46.8054 211.376 47.1193M242.444 50.1644C247.256 51.4909 251.975 53.316 256.59 55.7771C262.739 59.0562 268.529 63.1877 273.05 68.1924M244.37 58.9839C244.399 59.1654 244.427 59.3471 244.454 59.5289M244.37 58.9839C245.168 59.2472 245.96 59.5253 246.745 59.8187M244.454 59.5289C244.483 59.7261 244.512 59.9235 244.54 60.1211M244.454 59.5289C243.865 59.468 243.326 59.4241 242.844 59.3966C242.626 59.3841 242.406 59.3723 242.186 59.3612M244.454 59.5289C245.153 59.6011 245.922 59.6974 246.745 59.8187M244.54 60.1211C244.768 61.7155 244.948 63.3192 245.082 64.926M244.54 60.1211C243.762 59.8548 242.978 59.6015 242.186 59.3612M244.54 60.1211C249.253 61.734 253.705 63.8221 257.832 66.3665M245.082 64.926C245.142 65.6403 245.192 66.3552 245.234 67.0701M245.082 64.926C248.685 65.1044 252.239 65.5153 255.714 66.1625M245.234 67.0701C245.588 73.1197 245.308 79.1748 244.48 84.9081M245.234 67.0701C248.696 66.419 252.314 65.978 255.714 66.1625M244.48 84.9081C244.477 84.9255 244.475 84.9429 244.472 84.9603M244.48 84.9081C244.492 84.9147 244.504 84.9213 244.516 84.9279M244.472 84.9603C244.487 84.9495 244.501 84.9387 244.516 84.9279M243.375 90.9657C243.292 91.3397 243.206 91.7116 243.118 92.0814C240.86 101.583 236.738 110.916 231.44 119.683M243.375 90.9657C241.622 90.9225 239.846 90.9667 238.061 91.0905M231.44 119.683C230.604 121.065 229.74 122.433 228.849 123.785M231.44 119.683C230.565 119.846 229.688 120.044 228.814 120.273M231.44 119.683C234.329 119.145 237.198 118.997 239.868 119.422M228.849 123.785C227.471 125.876 226.03 127.93 224.536 129.94M228.849 123.785C228.922 126.336 229.094 128.869 229.318 131.347C229.337 131.557 229.356 131.767 229.376 131.977M228.849 123.785C228.815 122.617 228.802 121.446 228.814 120.273M224.536 129.94C222.634 132.499 220.646 134.987 218.591 137.394M224.536 129.94C226.037 130.773 227.647 131.457 229.376 131.977M224.536 129.94C222.037 128.555 219.838 126.761 217.887 124.635M218.591 137.394C216.73 139.574 214.815 141.687 212.861 143.724M218.591 137.394C218.942 137.262 219.286 137.129 219.624 136.996C222.997 135.661 226.25 133.982 229.382 132.044M218.591 137.394C215.389 138.593 211.711 139.64 208.14 139.783M212.861 143.724C210.223 146.474 207.513 149.086 204.771 151.538M212.861 143.724C218.681 147.919 225.287 150.324 232.495 149.847M212.861 143.724C211.224 142.544 209.649 141.222 208.14 139.783M204.771 151.538C204.32 151.941 203.867 152.34 203.414 152.735C202.558 153.481 201.685 154.202 200.798 154.896M200.798 154.896C199.739 155.725 198.659 156.516 197.559 157.267M197.559 157.267C196.888 157.726 196.21 158.169 195.524 158.598M197.559 157.267C197.263 155.073 196.937 152.886 196.574 150.709M197.559 157.267C197.794 159.006 198.01 160.749 198.212 162.496C198.836 167.913 199.729 173.87 199.898 179.763M195.524 158.598C195.391 162.836 195.917 167.205 197.116 171.6C197.732 173.856 198.662 176.745 199.898 179.763M195.524 158.598C195.609 155.907 195.96 153.268 196.574 150.709M173.994 166.36C168.627 166.986 163.113 166.693 157.579 165.34M127.326 140.062C124.283 135.266 121.617 130.378 119.242 125.973C119.057 125.629 118.871 125.28 118.686 124.928M127.326 140.062C128.975 138.753 130.59 137.398 132.166 136M127.326 140.062C124.111 142.612 120.766 144.985 117.323 147.151M118.686 124.928C118.042 123.698 117.402 122.415 116.777 121.087M118.686 124.928C122.175 124.216 125.591 120.323 126.69 117.308C129.862 108.601 126.507 97.121 121.76 88.9618M118.686 124.928C118.354 124.995 118.021 125.034 117.689 125.041M116.777 121.087C115.763 118.936 114.788 116.667 113.893 114.321M116.777 121.087C116.074 118.658 115.127 116.382 113.893 114.321M116.777 121.087C117.147 122.366 117.449 123.687 117.689 125.041M113.893 114.321C112.245 109.998 110.871 105.413 110.043 100.814M113.893 114.321C112.752 112.414 111.365 110.691 109.701 109.203M110.043 100.814C109.658 98.6794 109.391 96.542 109.268 94.4268M110.043 100.814C109.946 101.481 109.873 102.153 109.822 102.83C109.681 104.737 109.611 106.933 109.701 109.203M110.043 100.814C110.447 98.0174 111.248 95.3134 112.365 92.7358M109.268 94.4268C106.193 96.2479 103.391 98.3646 101.055 100.779M109.268 94.4268C110.274 93.8316 111.308 93.2679 112.365 92.7358M111.248 80.1025C111.626 79.2464 112.068 78.4396 112.566 77.6791M111.248 80.1025C110.924 80.1217 110.601 80.1426 110.281 80.1653M111.248 80.1025C112.452 80.0312 113.683 79.9842 114.934 79.9638M112.566 77.6791C117.282 70.4735 127.022 67.4241 135.123 66.0323C138.101 65.5207 141.124 65.1109 144.181 64.798M112.566 77.6791C112.221 77.371 111.874 77.0703 111.524 76.777M112.566 77.6791C113.372 78.4 114.161 79.1613 114.934 79.9638M144.181 64.798C147.137 64.4953 150.125 64.2833 153.133 64.1575M144.181 64.798C144.285 65.3638 144.398 65.9308 144.521 66.4985M153.133 64.1575C155.664 64.0517 158.209 64.007 160.762 64.0206M153.133 64.1575C150.198 64.7982 147.312 65.5808 144.521 66.4985M153.133 64.1575C156.039 63.5233 158.993 63.0282 161.951 62.6791M160.762 64.0206C164.099 64.0384 167.45 64.1559 170.801 64.3672M160.762 64.0206C158.144 67.1043 155.985 70.5286 154.248 74.204M160.762 64.0206C161.148 63.5659 161.544 63.1187 161.951 62.6791M170.801 64.3672C172.315 64.4627 173.829 64.5774 175.342 64.7106M170.801 64.3672C165.004 67.0624 159.392 70.3643 154.248 74.204M170.801 64.3672C172.504 63.5755 174.224 62.8361 175.952 62.1508M175.342 64.7106C180.679 65.1807 186.001 65.8826 191.25 66.7925M175.342 64.7106C176.788 63.8753 178.276 63.1181 179.8 62.4321M191.25 66.7925C193.237 67.137 195.214 67.5113 197.177 67.9142M191.25 66.7925C190.623 65.8855 189.972 64.9954 189.298 64.1221M191.25 66.7925C192.484 68.5795 193.622 70.4317 194.654 72.3485M197.177 67.9142C197.986 68.0801 198.792 68.2509 199.596 68.4264M197.177 67.9142C195.211 66.3347 192.726 65.0644 189.669 64.2225C189.545 64.1886 189.422 64.1552 189.298 64.1221M197.177 67.9142C197.664 68.3051 198.119 68.715 198.543 69.1421M199.596 68.4264C199.778 68.4661 199.96 68.5061 200.142 68.5464M199.596 68.4264C199.24 68.6598 198.889 68.8983 198.543 69.1421M199.596 68.4264C199.768 68.3139 199.941 68.2027 200.115 68.0926M200.142 68.5464C204.066 69.4148 207.928 70.3962 211.704 71.4802M200.142 68.5464C200.2 69.4711 200.268 70.3955 200.346 71.3191M200.142 68.5464C200.133 68.3951 200.124 68.2439 200.115 68.0926M211.704 71.4802C213.395 71.9656 215.068 72.4715 216.722 72.997C218.305 73.5002 219.914 74.0405 221.542 74.6178M211.704 71.4802C208.478 73.3892 205.564 75.7788 203.066 78.7354M221.542 74.6178C214.587 77.9861 208.016 82.4091 202.818 87.8646M244.516 84.9279C248.814 87.31 253.024 89.9396 257.025 92.8151M244.516 84.9279C248.316 82.0921 252.596 80.0555 257.187 78.8407M257.025 92.8151C257.791 93.3649 258.548 93.9238 259.297 94.4916M257.025 92.8151C256.817 92.9611 256.61 93.1085 256.405 93.2572M257.025 92.8151C258.141 92.0323 259.292 91.2877 260.471 90.5818M259.297 94.4916C260.936 95.7342 262.534 97.0199 264.083 98.3485M259.297 94.4916C258.364 94.0323 257.398 93.6216 256.405 93.2572M259.297 94.4916C261.163 95.4102 262.898 96.5229 264.468 97.8473M264.083 98.3485C265.755 99.7823 267.369 101.266 268.913 102.8M264.083 98.3485C264.212 98.182 264.34 98.0149 264.468 97.8473M268.913 102.8C269.177 103.061 269.438 103.324 269.697 103.588M268.913 102.8C268.441 102.133 267.948 101.484 267.433 100.856C266.53 99.751 265.537 98.7499 264.468 97.8473M268.913 102.8C269.153 103.138 269.388 103.481 269.617 103.829M269.697 103.588C272.353 106.296 274.794 109.155 276.959 112.166M269.697 103.588C269.725 103.502 269.753 103.417 269.781 103.331M269.697 103.588C269.671 103.668 269.644 103.749 269.617 103.829M276.959 112.166C277.227 112.538 277.49 112.912 277.749 113.288M276.959 112.166C277.535 110.92 278.071 109.667 278.562 108.409M276.959 112.166C276.785 112.543 276.606 112.92 276.424 113.296M277.749 113.288C279.153 115.33 280.431 117.44 281.564 119.617M277.749 113.288C277.309 113.28 276.868 113.282 276.424 113.296M277.749 113.288C279.005 113.312 280.243 113.425 281.453 113.634C281.764 113.687 282.067 113.752 282.364 113.826M281.564 119.617C284.428 125.121 286.368 131.057 287.094 137.419M281.564 119.617C281.929 117.696 282.198 115.764 282.364 113.826M281.564 119.617C280.797 123.662 279.605 127.659 278.056 131.561M287.094 137.419C287.381 139.935 287.478 142.518 287.368 145.167C287.351 145.562 287.33 145.957 287.303 146.353M287.094 137.419C288.063 130.531 288.184 123.508 287.523 116.735M287.094 137.419C286.64 140.646 286 143.843 285.167 146.97M287.303 146.353C286.53 157.956 281.507 170.187 273.851 181.193M287.303 146.353C289.477 145.68 291.638 144.867 293.676 143.885M287.303 146.353C286.591 146.574 285.878 146.779 285.167 146.97M273.851 181.193C273.81 181.253 273.768 181.312 273.727 181.372M273.851 181.193C274.212 181.018 274.572 180.842 274.931 180.664M273.851 181.193C273.107 181.554 272.359 181.908 271.609 182.256M273.727 181.372C273.42 181.81 273.11 182.246 272.795 182.68M273.727 181.372C274.133 181.145 274.534 180.909 274.931 180.664M273.727 181.372C273.11 181.716 272.482 182.04 271.844 182.342M272.795 182.68C271.186 184.902 269.47 187.069 267.661 189.166M272.795 182.68C289.908 188.561 309.464 184.814 320.883 169.516C336.973 147.962 339.179 111.742 324.717 88.6813C324.502 88.3388 324.285 88.0011 324.066 87.6682M272.795 182.68C272.477 182.571 272.16 182.458 271.844 182.342M267.661 189.166C253.157 205.982 232.688 218.29 213.327 217.995C203.776 217.849 194.911 213.834 187.214 208.008M267.661 189.166C274.443 191.002 281.643 191.502 288.737 191.123C321.79 189.356 363.697 162.787 356.097 124.986C352.566 107.426 339.743 94.7271 324.066 87.6682M267.661 189.166C266.23 188.778 264.818 188.332 263.429 187.821M187.214 208.008C170.657 218.085 142.095 212.188 128.333 203.517C127.127 202.757 125.894 201.955 124.644 201.114M176.039 197.535C173.474 194.629 171.143 191.605 169.077 188.6C167.129 185.766 165.335 182.753 163.693 179.599M176.039 197.535C182.859 198.094 189.736 198.226 196.572 198.044M176.039 197.535C162.847 196.452 149.867 193.768 137.807 188.655C137.252 188.42 136.697 188.179 136.143 187.932M163.693 179.599C165.52 180.181 167.318 180.714 169.077 181.197C177.907 183.619 188.764 185.616 199.762 185.97M151.89 143C150.442 134.49 149.733 125.908 149.724 117.704M151.89 143C153.576 142.672 155.255 142.248 156.869 141.782M151.89 143C147.466 143.862 142.993 144.068 139.505 142.644C136.322 141.345 133.918 138.923 132.166 136M149.724 117.704C149.723 117.231 149.725 116.76 149.729 116.29M149.724 117.704C151.112 126.181 153.591 134.431 156.869 141.782M149.724 117.704C149.661 117.322 149.601 116.94 149.543 116.558M149.729 116.29C149.667 116.379 149.605 116.468 149.543 116.558M153.273 92.3925C153.64 91.3509 154.037 90.3193 154.463 89.2998M153.273 92.3925C152.199 91.1219 150.98 89.9658 149.643 88.9167M154.463 89.2998C154.833 88.4155 155.224 87.5403 155.637 86.6757M154.463 89.2998C153.731 88.2597 153.03 87.1878 152.361 86.0894M155.637 86.6757C154.566 86.4388 153.472 86.2447 152.361 86.0894M179.8 62.4321C181.786 61.5384 183.832 60.7656 185.923 60.0983M179.8 62.4321C178.534 62.3054 177.25 62.2119 175.952 62.1508M179.8 62.4321C183.118 62.764 186.309 63.3235 189.298 64.1221M185.923 60.0983C190.47 58.647 195.227 57.6949 200.028 57.0848M185.923 60.0983C185.613 59.757 185.299 59.4187 184.982 59.0834M185.923 60.0983C187.103 61.3971 188.23 62.7384 189.298 64.1221M200.028 57.0848C199.862 60.7268 199.901 64.4104 200.115 68.0926M200.028 57.0848C200.042 56.7802 200.058 56.4758 200.074 56.1718M257.832 66.3665C258.016 66.4799 258.199 66.5942 258.382 66.7094M257.832 66.3665C257.138 66.2681 256.431 66.2014 255.714 66.1625M257.832 66.3665C258.569 66.4711 259.292 66.6115 259.995 66.7924M258.382 66.7094C259.979 67.7169 261.526 68.7937 263.019 69.9386M258.382 66.7094C257.498 66.5114 256.608 66.3291 255.714 66.1625M258.382 66.7094C259.135 66.8781 259.884 67.0582 260.628 67.2498M263.019 69.9386C265.479 71.8238 267.792 73.8937 269.943 76.1433M263.019 69.9386C259.862 70.9957 257.618 72.9886 257.247 77.6036C257.214 78.0186 257.194 78.431 257.187 78.8407M263.019 69.9386C263.255 69.8596 263.496 69.7858 263.742 69.7166M269.943 76.1433C270.375 76.5954 270.801 77.0546 271.22 77.5211M269.943 76.1433C269.903 76.0325 269.862 75.9219 269.821 75.8114M269.943 76.1433C270.117 76.6212 270.28 77.1024 270.432 77.5864M271.22 77.5211C271.259 77.5642 271.297 77.6074 271.336 77.6506M271.22 77.5211C270.761 76.9378 270.295 76.3679 269.821 75.8114M271.22 77.5211C271.253 77.5638 271.287 77.6066 271.32 77.6494M271.336 77.6506C272.144 78.5563 272.928 79.489 273.685 80.4484M271.336 77.6506C271.331 77.6502 271.326 77.6498 271.32 77.6494M271.336 77.6506C271.368 77.6532 271.399 77.6558 271.431 77.6584C272.339 77.7337 273.241 77.8382 274.138 77.9708M273.685 80.4484C274.55 81.5446 275.38 82.6756 276.175 83.8411M273.685 80.4484C273.865 79.6851 274.009 78.9194 274.115 78.152C274.123 78.0914 274.131 78.031 274.138 77.9708M273.685 80.4484C273.659 80.5589 273.632 80.6693 273.604 80.7796M276.175 83.8411C278.439 87.1604 280.413 90.7591 282.062 94.6273M276.175 83.8411C275.999 83.8916 275.824 83.9428 275.648 83.9948M276.175 83.8411C277.846 83.3615 279.525 82.9467 281.2 82.5976M282.062 94.6273C283.292 97.5108 284.341 100.544 285.195 103.723M282.062 94.6273C282.101 94.2714 282.135 93.9164 282.165 93.5621C282.493 89.659 282.127 86.0051 281.2 82.5976M282.062 94.6273C281.917 95.969 281.708 97.3214 281.439 98.6799M285.195 103.723C285.507 104.887 285.794 106.07 286.053 107.272C286.716 110.342 287.208 113.51 287.523 116.735M285.195 103.723C288.867 99.4674 291.849 93.9467 294.164 88.1857M285.195 103.723C284.33 104.724 283.428 105.655 282.487 106.503M287.523 116.735C286.114 115.355 284.411 114.343 282.364 113.826M287.523 116.735C293.339 122.432 294.167 134.416 293.676 143.885M285.167 146.97C282.973 155.213 279.441 162.975 274.448 169.532M285.167 146.97C282.721 147.629 280.303 148.123 278.068 148.495M274.448 169.532C271.699 173.143 268.507 176.389 264.852 179.148M274.448 169.532C274.87 168.108 275.249 166.639 275.593 165.129C276.733 160.127 277.617 154.446 278.068 148.495M274.448 169.532C273.156 173.9 271.468 177.85 269.205 181.289M264.852 179.148C262.184 181.162 259.268 182.917 256.098 184.366M264.852 179.148C266.273 179.935 267.727 180.649 269.205 181.289M264.852 179.148C264.078 178.719 263.313 178.269 262.559 177.797C258.291 175.125 254.175 171.665 250.722 167.671M256.098 184.366C254.879 184.923 253.623 185.435 252.328 185.899M256.098 184.366C257.011 184.903 257.94 185.405 258.883 185.871M256.098 184.366C254.036 183.152 252.058 181.754 250.183 180.155C247.625 177.973 245.358 175.549 243.352 172.937M252.328 185.899C251.891 186.055 251.45 186.206 251.004 186.352C240.553 189.765 231.403 188.175 223.648 183.565M252.328 185.899C254.501 186.069 256.69 186.066 258.883 185.871M252.328 185.899C245.684 185.38 239.183 183.246 233.116 180.035M223.648 183.565C223.035 183.2 222.431 182.817 221.835 182.416M223.648 183.565C226.959 182.672 230.137 181.509 233.116 180.035M221.835 182.416C225.113 181.607 228.362 180.505 231.535 179.169M197.701 146.907C196.327 142.848 195.254 138.811 194.488 134.967C194.093 132.986 193.752 130.953 193.472 128.885M197.701 146.907C198.398 144.942 199.26 143.036 200.285 141.201M193.472 128.885C192.955 125.067 192.644 121.125 192.579 117.156M193.472 128.885C194.389 131.6 195.694 134.055 197.5 135.954C197.94 136.417 198.402 136.831 198.881 137.201M193.472 128.885C192.37 125.619 191.829 121.977 191.657 118.473M192.579 117.156C192.574 116.905 192.571 116.654 192.569 116.403M192.579 117.156C192.643 117.061 192.707 116.966 192.771 116.87M192.579 117.156C192.278 117.599 191.971 118.038 191.657 118.473M192.569 116.403C192.636 116.559 192.703 116.715 192.771 116.87M193.463 102.992C192.67 105.383 192.123 107.888 191.859 110.508C191.746 111.635 191.663 112.843 191.622 114.104M193.9 100.368C194.205 100.111 194.504 99.8465 194.796 99.5749M199.346 84.1349C200.013 82.9366 200.733 81.8061 201.501 80.7404M199.346 84.1349C199.201 83.5667 199.043 82.9982 198.869 82.4295C197.789 78.8924 196.368 75.5313 194.654 72.3485M199.346 84.1349C199.897 86.3047 200.238 88.4697 200.386 90.6189M201.501 80.7404C202.002 80.0448 202.524 79.3767 203.066 78.7354M201.501 80.7404C201.806 82.662 202.15 84.5694 202.528 86.4561M201.501 80.7404C201.007 77.6284 200.616 74.4789 200.346 71.3191M203.066 78.7354C202.749 76.0762 201.87 73.5432 200.346 71.3191M203.066 78.7354C203.366 81.2479 203.163 83.8729 202.528 86.4561M260.628 67.2498C261.451 67.4617 262.269 67.6875 263.081 67.9275M260.628 67.2498C260.418 67.0956 260.207 66.9431 259.995 66.7924M260.628 67.2498C261.689 68.028 262.728 68.8497 263.742 69.7166M263.081 67.9275C264.291 68.2849 265.488 68.6735 266.67 69.0935M263.081 67.9275C262.108 67.4426 261.074 67.0698 259.995 66.7924M263.081 67.9275C263.872 68.321 264.622 68.7884 265.324 69.3386M266.67 69.0935C268.668 69.8028 270.624 70.6015 272.533 71.4906M266.67 69.0935C266.212 69.1689 265.763 69.2495 265.324 69.3386M266.67 69.0935C267.724 68.9202 268.825 68.7746 269.95 68.6173M272.533 71.4906C274.216 72.2741 275.862 73.1278 277.467 74.0522M272.533 71.4906C271.845 70.4591 270.969 69.5024 269.95 68.6173M272.533 71.4906C273.8 73.3898 274.428 75.5429 274.138 77.9708M277.467 74.0522C281.157 76.1772 284.631 78.6759 287.834 81.5553M277.467 74.0522C276.195 71.9808 274.708 70.0279 273.05 68.1924M277.467 74.0522C278.491 75.7186 279.374 77.4618 280.095 79.2821M287.834 81.5553C288.456 82.1144 289.068 82.6878 289.669 83.2757M287.834 81.5553C287.406 81.6003 286.977 81.6499 286.547 81.7039M287.834 81.5553C289.832 81.3452 291.801 81.2339 293.72 81.223C294.681 81.2176 295.644 81.2322 296.611 81.2667M289.669 83.2757C291.242 84.8135 292.743 86.4498 294.164 88.1857M289.669 83.2757C288.645 82.7149 287.604 82.1903 286.547 81.7039M289.669 83.2757C291.441 84.2462 293.161 85.3248 294.82 86.5003M294.164 88.1857C297.069 91.7347 299.643 95.6995 301.825 100.088C306.411 109.311 308.861 123.683 304.728 133.486C302.739 138.203 298.558 141.531 293.676 143.885M294.164 88.1857C294.389 87.6258 294.608 87.0637 294.82 86.5003M293.676 143.885C293.487 147.517 293.104 150.778 292.734 153.174C291.056 164.043 284.408 174.818 274.931 180.664M278.068 148.495C277.428 148.602 276.802 148.699 276.196 148.786C273.616 149.159 270.962 149.28 268.317 149.147M278.068 148.495C278.486 142.974 278.53 137.22 278.056 131.561M268.317 149.147C263.495 148.902 258.707 147.809 254.464 145.845M268.317 149.147C272.276 143.647 275.611 137.723 278.056 131.561M268.317 149.147C263.925 155.248 258.763 160.826 253.195 165.622C252.39 166.315 251.566 166.999 250.722 167.671M254.464 145.845C252.939 145.139 251.484 144.32 250.123 143.387M254.464 145.845C254.572 144.006 254.573 142.17 254.457 140.367M254.464 145.845C254.048 152.954 252.035 160.109 248.993 165.553M250.123 143.387C247.284 141.441 244.857 139.001 243.057 136.056M250.123 143.387C251.592 142.457 253.039 141.448 254.457 140.367M250.123 143.387C247.307 145.17 244.409 146.661 241.475 147.799C241.464 147.804 241.452 147.808 241.441 147.812M243.057 136.056C241.531 139.995 241.07 143.953 241.441 147.812M243.057 136.056C243.112 135.912 243.169 135.768 243.228 135.625C243.724 134.408 244.327 133.209 245.025 132.038M241.467 132.926C240.429 130.412 239.802 127.602 239.682 124.49M241.467 132.926C240.892 133.012 240.31 133.072 239.723 133.102C235.891 133.3 232.488 132.903 229.452 132M239.682 124.49C239.676 124.345 239.671 124.199 239.668 124.053C239.631 122.469 239.701 120.925 239.868 119.422M239.682 124.49C241.152 123.246 242.59 121.96 243.996 120.643M239.682 124.49C236.428 127.243 233.018 129.789 229.452 132M239.868 119.422C241.312 119.652 242.697 120.049 243.996 120.643M260.471 90.5818C264.08 88.4225 267.961 86.6247 271.947 85.2011M260.471 90.5818C260.528 90.6797 260.585 90.7774 260.643 90.8749C261.425 92.1964 262.932 94.6615 264.856 97.3347M260.471 90.5818C258.368 86.9374 257.111 83.0296 257.187 78.8407M271.947 85.2011C272.016 85.1764 272.085 85.1519 272.154 85.1274M271.947 85.2011C271.706 82.6149 271.21 80.0625 270.432 77.5864M271.947 85.2011C271.958 85.3164 271.968 85.4318 271.978 85.5472M272.154 85.1274C273.312 84.7183 274.478 84.3406 275.648 83.9948M272.154 85.1274C272.748 83.6916 273.24 82.2404 273.604 80.7796M272.154 85.1274C272.096 85.2675 272.038 85.4074 271.978 85.5472M275.648 83.9948C275.469 83.6918 275.287 83.3894 275.1 83.0876C274.613 82.2984 274.115 81.5292 273.604 80.7796M275.648 83.9948C278.47 88.7782 280.359 93.7027 281.439 98.6799M281.2 82.5976C282.992 82.2242 284.779 81.9259 286.547 81.7039M281.2 82.5976C280.892 81.4653 280.522 80.3602 280.095 79.2821M286.547 81.7039C284.454 80.741 282.299 79.9281 280.095 79.2821M296.611 81.2667C305.911 81.599 315.422 83.7764 324.066 87.6682M296.611 81.2667C297.898 77.1005 298.846 73.0208 299.464 69.4094M296.611 81.2667C296.073 83.0054 295.476 84.7592 294.82 86.5003M324.066 87.6682C317.512 77.7101 309.077 72.0748 299.464 69.4094M263.429 187.821C262.537 187.493 261.654 187.138 260.782 186.756M263.429 187.821C264.712 186.746 265.88 185.576 266.945 184.317M263.429 187.821C260.488 190.286 256.942 192.253 252.647 193.646C241.544 197.247 227.193 198.476 215.517 197.101C215.154 197.058 214.796 196.995 214.443 196.913M260.782 186.756C260.143 186.476 259.51 186.181 258.883 185.871M260.782 186.756C262.855 185.988 264.91 185.175 266.945 184.317M260.782 186.756C247.475 191.691 233.455 194.811 219.46 196.388C217.797 196.575 216.124 196.751 214.443 196.913M258.883 185.871C261.591 185.631 264.306 185.1 267.009 184.241M243.352 172.937C243.339 172.92 243.327 172.903 243.314 172.887M243.352 172.937C245.928 171.295 248.396 169.526 250.722 167.671M243.352 172.937C243.266 172.992 243.179 173.047 243.092 173.102M243.314 172.887C244.53 171.696 245.672 170.41 246.733 169.022C247.536 167.971 248.292 166.808 248.993 165.553M243.314 172.887C243.24 172.959 243.166 173.031 243.092 173.102M232.495 149.847C230.921 143.972 229.945 137.93 229.382 132.044M229.382 132.044C229.38 132.022 229.378 131.999 229.376 131.977M229.382 132.044C229.406 132.029 229.429 132.015 229.452 132M229.376 131.977C229.402 131.985 229.427 131.993 229.452 132M228.814 120.273C228.902 111.473 230.391 102.633 235.123 95.1525C236.034 93.7123 237.015 92.358 238.061 91.0905M228.814 120.273C224.974 121.28 221.192 122.878 217.887 124.635M238.061 91.0905C226.381 91.9001 214.344 96.1154 206.376 101.55M257.187 78.8407C261.384 77.73 265.841 77.3062 270.432 77.5864M270.432 77.5864C270.728 77.6045 271.024 77.6255 271.32 77.6494M271.32 77.6494C272.105 78.6525 272.867 79.6955 273.604 80.7796M274.138 77.9708C276.156 78.2692 278.145 78.7102 280.095 79.2821M294.82 86.5003C307.659 95.5991 316.835 110.501 318.255 125.973C319.551 140.109 314.375 151.546 303.906 161.071C295.187 169.004 285.392 175.484 274.931 180.664M271.609 182.256C270.25 182.885 268.881 183.493 267.503 184.081M271.609 182.256C271.687 182.285 271.765 182.314 271.844 182.342M271.609 182.256C270.801 181.955 270 181.633 269.205 181.289M267.503 184.081C267.317 184.16 267.131 184.239 266.945 184.317M267.503 184.081C268.871 183.626 270.236 183.086 271.596 182.458C271.678 182.42 271.761 182.381 271.844 182.342M267.503 184.081C267.339 184.135 267.174 184.189 267.009 184.241M266.945 184.317C266.967 184.292 266.988 184.267 267.009 184.241M196.572 198.044C197.204 196.812 197.753 195.493 198.212 194.084C199.056 191.491 199.535 188.764 199.762 185.97M110.166 171.854C109.588 171.385 109.015 170.911 108.445 170.432M108.445 170.432C103.654 166.399 99.1585 161.997 95.0843 157.315M95.0843 157.315C93.809 155.85 92.5749 154.357 91.3858 152.84M95.0843 157.315C93.0038 157.878 90.9284 158.329 88.8644 158.667M91.3858 152.84C88.9163 149.689 86.6412 146.432 84.5947 143.095M91.3858 152.84C89.6171 154.242 88.6283 156.144 88.8644 158.667M73.0999 106.215C73.1083 106 73.1185 105.786 73.1306 105.572C73.1966 104.4 73.3691 103.27 73.6369 102.181M73.6369 102.181C74.5886 98.3083 76.7432 94.9587 79.5926 92.1307M79.5926 92.1307C80.7777 90.9544 82.083 89.8685 83.4719 88.8726M110.281 80.1653C110.759 79.0049 111.175 77.8704 111.524 76.777M114.934 79.9638C116.974 79.9305 119.065 79.9679 121.175 80.0862M121.175 80.0862C123.291 77.9768 125.599 76.0759 128.004 74.4228C132.723 71.1798 138.392 68.5136 144.521 66.4985M142.63 84.7709C143.21 85.0294 143.781 85.2996 144.34 85.5821M142.63 84.7709C142.375 85.0564 142.123 85.3438 141.873 85.633M144.34 85.5821C146.252 86.5474 148.033 87.6546 149.643 88.9167M144.34 85.5821C143.516 85.5847 142.693 85.6022 141.873 85.633M144.34 85.5821C146.329 85.5756 148.318 85.6557 150.271 85.8438M149.643 88.9167C149.829 87.8834 150.038 86.8586 150.271 85.8438M149.543 116.558C144.637 123.596 138.738 130.171 132.166 136M132.166 136C129.677 131.848 128.503 126.686 128.278 122.298C127.562 108.316 133.042 95.8632 141.873 85.633M117.323 147.151C116.188 147.866 115.042 148.558 113.887 149.226M117.323 147.151C118.525 139.745 118.916 131.963 117.689 125.041M117.323 147.151C117.138 148.295 116.933 149.43 116.712 150.552M113.887 149.226C113.509 149.445 113.13 149.661 112.75 149.874M113.887 149.226C115.23 135.916 113.157 122.108 107.851 110.892C107.061 109.221 106.172 107.633 105.194 106.127M113.887 149.226C113.86 149.491 113.832 149.755 113.802 150.02M112.75 149.874C112.547 149.989 112.343 150.102 112.139 150.215M112.75 149.874C112.392 149.828 112.028 149.785 111.659 149.746M112.75 149.874C113.107 149.92 113.458 149.968 113.802 150.02M112.139 150.215C112.622 150.685 113.112 151.15 113.608 151.61M112.139 150.215C111.978 150.059 111.818 149.903 111.659 149.746M50.0386 149.664C47.8759 148.023 45.8153 146.174 43.8728 144.118M50.0386 149.664C55.7166 164.704 64.4273 176.615 75.8103 187.357M50.0386 149.664C49.7315 148.851 49.4332 148.028 49.1439 147.196C49.1018 147.075 49.0597 146.954 49.0176 146.832M43.8728 144.118C39.9595 139.975 36.5252 134.988 33.7004 129.153C33.4248 128.584 33.1563 128.011 32.8955 127.435M43.8728 144.118C45.53 145.15 47.2444 146.062 49.0176 146.832M43.8728 144.118C39.8474 141.611 36.159 138.401 32.7821 134.812M32.8955 127.435C29.5387 120.017 27.4398 112.008 27.6216 103.817C27.6528 102.41 27.811 101.111 28.085 99.9088M32.8955 127.435C32.4774 129.805 32.469 132.284 32.7821 134.812M32.8955 127.435C33.4411 124.341 34.6848 121.432 36.822 118.843C38.0459 117.361 39.3904 115.985 40.8383 114.711M28.085 99.9088C29.7901 92.4309 35.9812 88.7417 43.9961 86.5974C44.3466 86.5036 44.6986 86.413 45.0522 86.3254M28.085 99.9088C25.4638 101.782 23.1813 104.073 21.4333 106.888C19.878 109.393 18.9031 112.21 18.3329 115.161M28.085 99.9088C32.1181 97.0267 36.9533 95.1339 41.878 93.843M45.0522 86.3254C49.6434 85.189 54.4865 84.5807 59.3825 84.5183M45.0522 86.3254C43.6806 88.6122 42.6004 91.1169 41.878 93.843M45.0522 86.3254C48.08 81.2776 52.5284 77.2922 57.6857 74.3344M59.3825 84.5183C58.5769 81.0703 58.0355 77.5843 57.6857 74.3344M98.4795 98.1933C99.3728 99.0169 100.232 99.8788 101.055 100.779M98.4795 98.1933C97.7698 98.9174 97.0408 99.6145 96.294 100.279M101.055 100.779C102.565 102.431 103.951 104.213 105.194 106.127M101.055 100.779C100.299 101.561 99.5919 102.375 98.9403 103.219M105.194 106.127C103.803 105.418 102.282 104.826 100.622 104.366C100.278 104.27 99.9305 104.177 99.5803 104.087M105.194 106.127C106.882 106.988 108.379 108.022 109.701 109.203M113.802 150.02C113.743 150.551 113.679 151.081 113.608 151.61M113.802 150.02C114.838 150.174 115.815 150.354 116.712 150.552M113.608 151.61C114.398 152.343 115.204 153.065 116.024 153.775M101.842 181.649C94.7085 190.533 85.1163 190.876 75.8103 187.357M101.842 181.649C102.589 182.488 103.354 183.315 104.135 184.13M75.8103 187.357C66.0097 183.651 56.5267 175.662 50.5678 168.858C43.9104 161.256 34.3443 147.424 32.7821 134.812M75.8103 187.357C78.1961 189.608 80.6994 191.808 83.3167 193.975C86.2076 196.368 88.9835 198.167 91.831 199.494M32.7821 134.812C27.1349 128.811 22.3585 121.752 18.3329 115.161M40.8383 114.711C42.07 125.786 45.5729 136.901 49.0176 146.832M40.8383 114.711C40.0977 108.052 40.1783 101.407 41.5865 95.0428C41.676 94.6382 41.7732 94.2383 41.878 93.843M68.268 102.857C65.1829 99.8361 62.9165 95.6286 61.2659 90.9995M93.184 102.774C95.0063 103.059 96.7807 103.408 98.4924 103.817M93.184 102.774C94.2502 102.01 95.2882 101.174 96.294 100.279M98.4924 103.817C98.8579 103.904 99.2206 103.994 99.5803 104.087M98.4924 103.817C94.3057 109.569 92.6785 116.727 95.5838 125.315C96.227 127.216 96.986 129.076 97.8507 130.895M98.4924 103.817C98.6386 103.616 98.7879 103.417 98.9403 103.219M99.5803 104.087C99.3718 103.792 99.1584 103.502 98.9403 103.219M99.5803 104.087C99.9426 104.6 100.29 105.131 100.622 105.682C105.662 114.039 103.133 123.354 97.8507 130.895M109.701 109.203C109.888 113.899 110.761 118.914 113.108 122.353C114.449 124.317 116.053 125.073 117.689 125.041M116.712 150.552C116.497 151.64 116.267 152.716 116.024 153.775M104.135 184.13C100.774 189.942 96.6984 195.436 91.831 199.494M104.135 184.13C110.457 190.723 117.808 196.511 124.644 201.114M91.831 199.494C85.7775 204.54 78.4989 207.365 69.8447 205.82C39.002 200.313 21.793 160.641 18.3665 133.102C17.6725 127.525 17.1911 121.072 18.3329 115.161M91.831 199.494C96.8039 201.81 101.995 202.682 108.399 202.749C113.124 202.799 119.253 202.573 124.644 201.114M18.3329 115.161C17.6665 114.07 17.0207 112.992 16.395 111.934C9.07969 99.5599 4.53799 86.3713 2.92301 72.1195C1.77014 61.9457 0.0327673 48.9343 9.4947 42.0671C21.1224 33.6279 38.0177 31.4703 51.9916 31.428C61.9976 31.3978 72.5801 31.7435 82.436 34.3266M96.294 100.279C97.2373 101.179 98.1221 102.157 98.9403 103.219M97.8507 130.895C101.125 137.785 105.914 144.082 111.659 149.746M82.436 34.3266C68.0103 38.7046 56.8426 47.8857 57.1394 65.6484C57.181 68.136 57.3396 71.1197 57.6857 74.3344M148.652 36.6887C156.178 24.4391 170.501 17.198 184.904 15.3598C194.789 14.0982 204.446 14.8466 210.266 22.7884M177.494 52.2039C180.155 54.3387 182.664 56.6325 184.982 59.0834M177.494 52.2039C173.513 53.7508 169.761 55.7969 166.394 58.5191C164.795 59.8116 163.316 61.2019 161.951 62.6791M177.494 52.2039C184.861 49.3415 193.013 48.1881 200.963 47.6218M184.982 59.0834C181.97 59.9372 178.948 60.9627 175.952 62.1508M184.982 59.0834C188.477 58.0927 191.957 57.3332 195.364 56.8191C196.928 56.5831 198.499 56.3664 200.074 56.1718M194.654 72.3485C195.849 71.1916 197.151 70.1244 198.543 69.1421M200.386 90.6189C200.418 91.0867 200.441 91.5538 200.455 92.0199M200.386 90.6189C200.828 90.0772 201.283 89.5445 201.751 89.0208M200.455 92.0199C200.95 91.0419 201.383 90.0389 201.751 89.0208M192.771 116.87C193.58 118.726 194.461 120.571 195.411 122.384M191.657 118.473C190.767 119.707 189.821 120.907 188.827 122.07M141.873 85.633C138.33 85.7659 134.84 86.1466 131.619 86.6522C128.418 87.1545 125.075 87.9236 121.76 88.9618M148.569 78.8405C150.383 77.2189 152.281 75.6721 154.248 74.204M148.569 78.8405C149.271 80.42 150.036 81.9726 150.86 83.4859M148.569 78.8405C146.788 74.8301 145.416 70.647 144.521 66.4985M154.248 74.204C152.855 77.1519 151.732 80.2613 150.86 83.4859M175.952 62.1508C171.398 61.9367 166.67 62.122 161.951 62.6791M200.074 56.1718C200.234 53.2862 200.525 50.429 200.963 47.6218M246.745 59.8187C251.426 61.568 255.874 63.86 259.995 66.7924M246.745 59.8187C253.558 60.823 264.108 63.5455 269.95 68.6173M263.742 69.7166C265.879 71.5424 267.911 73.5687 269.821 75.8114M263.742 69.7166C264.251 69.5733 264.779 69.4494 265.324 69.3386M269.821 75.8114C269.757 75.6406 269.691 75.4702 269.624 75.3003C268.591 72.6769 267.113 70.7393 265.324 69.3386M281.439 98.6799C282.003 101.278 282.346 103.889 282.487 106.503M281.439 98.6799C280.801 101.91 279.826 105.174 278.562 108.409M282.487 106.503C282.618 108.946 282.572 111.391 282.364 113.826M282.487 106.503C282.236 106.729 281.983 106.949 281.727 107.163C280.733 107.992 279.668 108.376 278.562 108.409M278.056 131.561C277.602 126.132 276.67 120.791 275.136 115.827M250.722 167.671C250.125 166.981 249.548 166.274 248.993 165.553M243.092 173.102C239.424 175.422 235.54 177.482 231.535 179.169M243.092 173.102C240.147 175.937 236.782 178.222 233.116 180.035M231.535 179.169C232.059 179.466 232.586 179.755 233.116 180.035M201.18 182.685C200.759 182.582 200.34 182.473 199.923 182.358M201.18 182.685C201.708 183.811 202.279 184.933 202.89 186.026M201.18 182.685C200.721 181.709 200.294 180.729 199.898 179.763M199.923 182.358C199.933 181.495 199.923 180.63 199.898 179.763M199.923 182.358C199.909 183.57 199.859 184.776 199.762 185.97M150.271 85.8438C150.973 85.9114 151.67 85.9929 152.361 86.0894M211.376 47.1193C213.538 40.2785 215.348 32.3834 212.231 26.0537C211.639 24.8501 210.981 23.7649 210.266 22.7884M273.05 68.1924C272.294 68.2866 271.535 68.3893 270.774 68.5001C270.498 68.5402 270.223 68.5791 269.95 68.6173M273.05 68.1924C282.41 67.0261 291.356 67.1611 299.464 69.4094M278.562 108.409C275.725 108.493 272.622 106.268 269.781 103.331M276.424 113.296C276.013 114.144 275.583 114.989 275.136 115.827M276.424 113.296C275.732 113.316 275.036 113.363 274.337 113.434M275.136 115.827C270.084 125.29 262.761 134.043 254.457 140.367M275.136 115.827C274.886 115.019 274.62 114.221 274.337 113.434M254.457 140.367C254.184 136.122 253.265 132.063 251.569 128.588M241.441 147.812C242.052 154.167 244.917 160.255 248.993 165.553M208.14 139.783C206.756 138.463 205.428 137.044 204.158 135.546M208.14 139.783C205.917 139.872 203.736 139.611 201.736 138.818M204.158 135.546C203.285 136.603 202.478 137.695 201.736 138.818M204.158 135.546C206.336 132.907 208.92 130.484 211.903 128.331C213.584 127.117 215.624 125.839 217.887 124.635M195.411 122.384C195.718 126.836 197.02 131.546 198.65 136.502C198.727 136.735 198.804 136.968 198.881 137.201M191.622 114.104C190.262 110.661 189.153 107.211 188.318 103.877M188.318 103.877C185.852 104.961 183.16 105.59 180.307 105.622M198.543 69.1421C199.223 69.8263 199.823 70.5544 200.346 71.3191M271.978 85.5472C270.219 89.6545 267.642 93.6302 264.856 97.3347M271.978 85.5472C272.478 91.4791 271.642 97.5782 269.781 103.331M264.856 97.3347C264.727 97.5062 264.597 97.677 264.468 97.8473M264.856 97.3347C266.305 99.3489 267.991 101.481 269.781 103.331M198.881 137.201C199.332 138.549 199.798 139.883 200.285 141.201M201.751 89.0208C202.1 88.6304 202.455 88.245 202.818 87.8646M201.751 89.0208C202.056 88.1744 202.316 87.3176 202.528 86.4561M202.818 87.8646C203.816 92.6029 205.027 97.199 206.376 101.55M202.818 87.8646C202.719 87.3965 202.623 86.9269 202.528 86.4561M269.617 103.829C268.104 108.345 265.959 112.637 263.335 116.455M269.617 103.829C271.54 106.744 273.098 109.981 274.337 113.434M263.335 116.455C262.404 117.808 261.413 119.102 260.369 120.324C257.867 123.253 254.905 126.238 251.569 128.588M263.335 116.455C258.328 118.67 253.639 121.911 249.911 125.743M263.335 116.455C266.918 114.869 270.665 113.809 274.337 113.434M251.569 128.588C249.522 130.03 247.333 131.233 245.025 132.038M251.569 128.588C251.081 127.588 250.53 126.637 249.911 125.743M245.025 132.038C246.344 129.823 248.001 127.705 249.911 125.743M217.887 124.635C213.671 120.042 210.612 113.901 208.179 106.998C207.556 105.232 206.954 103.413 206.376 101.55M269.205 181.289C268.527 182.32 267.796 183.305 267.009 184.241M202.89 186.026C201.847 186.023 200.804 186.004 199.762 185.97M112.365 92.7358C115.367 91.2243 118.551 89.9669 121.76 88.9618M112.365 92.7358C113.795 89.4385 115.744 86.348 118.045 83.5349M121.76 88.9618C121.09 87.8092 120.392 86.7228 119.68 85.7199C119.146 84.9666 118.6 84.2384 118.045 83.5349M167.253 147.007C159.963 147.007 150.791 147.597 142.558 146.427M142.558 146.427C139.079 145.933 135.768 145.125 132.837 143.826M142.558 146.427C145.493 145.461 148.703 143.667 151.75 141.549M142.558 146.427C138.286 147.833 134.596 147.484 132.837 143.826M132.837 143.826C126.517 141.025 121.965 135.94 121.312 126.797C120.644 117.447 120.15 106.131 123.186 96.5603M132.837 143.826C132.362 142.838 132.027 141.608 131.86 140.106C130.982 132.205 135.647 126.902 143.222 125.889M123.186 96.5603C125.037 90.7247 128.201 85.5378 133.438 81.8412C137.758 78.7916 142.397 77.8378 146.891 78.4868M123.186 96.5603C127.983 88.2528 136.841 82.4536 146.891 78.4868M123.186 96.5603C121.944 98.7115 120.974 101.031 120.326 103.53C114.862 124.604 124.431 150.468 145.367 159.231C161.835 166.125 178.091 165.22 190.343 157.126M146.891 78.4868C151.622 79.1701 156.191 81.6302 160.056 85.2917C162.149 87.2746 164.07 89.4703 165.821 91.8258M146.891 78.4868C160.178 73.2423 175.549 71.2007 186.378 70.7996C195.082 70.4772 203.286 70.2104 207.323 78.6963M165.821 91.8258C166.137 92.2496 166.446 92.6786 166.751 93.1124M165.821 91.8258C166.982 83.962 170.76 79.0603 181.252 82.4327C182.673 82.8896 183.789 83.6948 184.659 84.7555M165.821 91.8258C165.738 92.3882 165.669 92.9658 165.611 93.5566M166.751 93.1124C167.715 94.4884 168.626 95.9133 169.481 97.3772M166.751 93.1124C169.588 92.0908 172.903 91.4899 176.381 91.2446M166.751 93.1124C166.361 93.2525 165.981 93.4005 165.611 93.5566M169.481 97.3772C171.017 100.005 172.378 102.758 173.568 105.58M169.481 97.3772C171.694 95.261 173.999 93.2252 176.381 91.2446M169.481 97.3772C168.083 98.7146 166.721 100.084 165.4 101.492M173.568 105.58C175.958 111.248 177.655 117.193 178.689 122.952C179.298 126.347 179.181 132.305 180.471 136.369M173.568 105.58C173.939 105.308 174.331 105.051 174.745 104.812C180.508 101.482 184.55 101.233 187.213 102.832M173.568 105.58C166.108 111.06 167.253 122.945 167.253 131.036C167.253 141.841 176.126 130.422 176.126 131.036C176.126 133.855 176.336 136.374 176.778 138.634M180.471 136.369C180.701 137.092 180.975 137.755 181.305 138.332M180.471 136.369C179.367 137.167 178.183 137.925 176.939 138.627M180.471 136.369C181.629 135.532 182.699 134.65 183.655 133.74M181.305 138.332C181.383 138.468 181.464 138.599 181.548 138.725C182.084 139.53 182.489 139.15 182.812 138.196M181.305 138.332C179.884 138.453 178.42 138.554 176.939 138.627M181.305 138.332C181.813 138.289 182.316 138.244 182.812 138.196M182.812 138.196C183.171 137.14 183.429 135.378 183.655 133.74M182.812 138.196C185.414 137.947 187.839 137.641 189.928 137.345C196.705 136.384 202.792 134.764 208.106 132.442M183.655 133.74C183.815 132.581 183.959 131.483 184.111 130.74C185.533 123.787 186.438 116.839 186.674 109.741C186.734 107.95 186.997 105.518 187.213 102.832M183.655 133.74C184.713 132.734 185.632 131.693 186.378 130.641C191.833 122.956 193.993 106.904 187.213 102.832M187.213 102.832C187.505 99.2064 187.709 95.1203 187.207 91.534M187.207 91.534C186.834 88.8663 186.069 86.4751 184.659 84.7555M187.207 91.534C192.373 92.144 197.2 93.3872 200.673 95.0518C208.039 98.5809 210.811 104.895 211.273 111.894M187.207 91.534C183.649 91.1139 179.929 90.9943 176.381 91.2446M184.659 84.7555C184.772 84.6713 184.885 84.5871 184.998 84.503C190.906 80.1147 199.039 78.6793 207.323 78.6963M184.659 84.7555C181.818 86.873 179.051 89.0241 176.381 91.2446M165.611 93.5566C165.37 96.0192 165.336 98.7113 165.4 101.492M165.611 93.5566C164.64 93.9656 163.737 94.4301 162.915 94.9532C152.718 101.442 142.729 113.269 143.222 125.889M165.4 101.492C165.644 112.089 167.311 123.975 164.394 129.36C164.027 130.036 163.458 130.843 162.725 131.735M165.4 101.492C160.713 106.488 156.54 111.969 153.056 118.22C151.359 121.266 150.429 123.883 150.133 126.126M162.725 131.735C161.471 133.262 159.737 135.038 157.726 136.83M162.725 131.735C158.627 129 154.413 126.96 150.133 126.126M162.725 131.735C165.76 133.76 168.731 136.165 171.619 138.744M157.726 136.83C155.911 138.446 153.87 140.076 151.75 141.549M157.726 136.83C152.635 135.033 149.39 131.757 150.133 126.126M157.726 136.83C161.602 138.197 166.549 138.707 171.619 138.744M151.75 141.549C149.039 140.128 146.778 137.842 145.268 134.486C143.976 131.615 143.333 128.732 143.222 125.889M151.75 141.549C157.844 144.746 166.211 143.577 173.425 140.389M143.222 125.889C144.097 125.772 145.01 125.712 145.958 125.712C147.356 125.712 148.748 125.856 150.133 126.126M171.619 138.744C172.225 139.285 172.827 139.834 173.425 140.389M171.619 138.744C173.337 138.757 175.069 138.715 176.778 138.634M173.425 140.389C175.807 142.596 178.127 144.894 180.374 147.161M173.425 140.389C174.582 139.877 175.709 139.314 176.793 138.709M180.374 147.161C181.545 148.343 182.696 149.517 183.826 150.665M180.374 147.161C178.627 144.826 177.456 142.053 176.793 138.709M180.374 147.161C181.344 148.457 182.491 149.618 183.826 150.665M183.826 150.665C186.09 152.967 188.267 155.166 190.343 157.126M183.826 150.665C186.212 152.537 189.2 154.047 192.854 155.323M190.343 157.126C191.485 158.204 192.595 159.209 193.674 160.119C197.938 163.717 201.829 167.306 207.18 169.09C209.008 169.699 209.769 165.012 210.037 159.238M190.343 157.126C191.2 156.56 192.037 155.959 192.854 155.323M210.037 159.238C210.408 151.282 209.842 141.263 209.842 140.204C209.842 137.463 209.952 134.548 210.115 131.513M210.037 159.238C206.271 158.703 202.696 158.002 199.589 157.26C197.13 156.672 194.889 156.034 192.854 155.323M210.037 159.238C218.846 160.488 228.702 160.826 236.066 158.64C247.672 155.194 250.846 140.045 253.811 130.05C256.584 120.706 259.745 108.82 256.966 99.0938C253.922 88.4402 238.989 83.3807 229.362 81.3483C223.032 80.0119 215.11 78.7123 207.323 78.6963M210.115 131.513C210.293 128.186 210.534 124.716 210.761 121.178M210.115 131.513C209.458 131.834 208.788 132.144 208.106 132.442M210.115 131.513C210.684 131.235 211.243 130.947 211.793 130.651M210.761 121.178C210.958 118.118 211.145 115.007 211.273 111.894M210.761 121.178C210.28 124.3 209.55 127.38 208.758 130.247C208.552 130.991 208.335 131.722 208.106 132.442M210.761 121.178C211.24 118.069 211.472 114.917 211.273 111.894M211.273 111.894C211.739 100.501 211.411 89.0723 207.87 79.9681C207.697 79.5237 207.515 79.1001 207.323 78.6963M192.854 155.323C199.616 150.054 204.946 142.387 208.106 132.442M176.793 138.709C176.842 138.681 176.89 138.654 176.939 138.627M176.793 138.709C176.788 138.684 176.783 138.659 176.778 138.634M176.939 138.627C176.885 138.629 176.832 138.632 176.778 138.634M211.793 130.651C224.979 123.551 232.528 111.387 232.911 93.3758C233.044 87.1541 229.746 79.5835 222.264 86.6719C211.056 97.2898 219.708 106.89 214.771 118.614C213.147 122.471 212.169 126.513 211.793 130.651ZM211.793 130.651C211.675 131.954 211.617 133.266 211.617 134.585C211.617 141.443 206.927 137.374 213.391 141.683" stroke="black" stroke-width="3" stroke-linecap="round"/>
</svg>
