<svg width="121" height="80" viewBox="0 0 121 80" fill="none" xmlns="http://www.w3.org/2000/svg">
<g filter="url(#filter0_d_3035_1225)">
<mask id="path-1-outside-1_3035_1225" maskUnits="userSpaceOnUse" x="4.81285" y="-0.546875" width="30.0617" height="69.3658" fill="black">
<rect fill="white" x="4.81285" y="-0.546875" width="30.0617" height="69.3658"/>
<path d="M16.9229 33.4497C21.1639 16.4714 29.297 6.6063 29.297 6.6063ZM16.9229 33.4497C12.682 50.4281 15.2212 62.9583 15.2212 62.9583Z"/>
</mask>
<path d="M32.3833 9.15079C33.7886 7.44625 33.546 4.92523 31.8415 3.51995C30.1369 2.11466 27.6159 2.35726 26.2106 4.0618L32.3833 9.15079ZM11.3009 63.7527C11.7396 65.9178 13.8505 67.3173 16.0156 66.8786C18.1807 66.4398 19.5802 64.329 19.1415 62.1639L11.3009 63.7527ZM20.8037 34.4191C22.8234 26.3335 25.7679 19.9518 28.1924 15.612C29.4036 13.4438 30.4814 11.7917 31.2425 10.6988C31.6229 10.1526 31.9236 9.74675 32.1215 9.48676C32.2205 9.35679 32.2938 9.26335 32.3384 9.20711C32.3607 9.17899 32.3758 9.16018 32.3834 9.15076C32.3872 9.14606 32.3892 9.1437 32.3892 9.1437C32.3892 9.1437 32.3887 9.14429 32.3877 9.14547C32.3872 9.14606 32.3866 9.1468 32.3859 9.14769C32.3855 9.14813 32.3849 9.14891 32.3847 9.14913C32.384 9.14994 32.3833 9.15079 29.297 6.6063C26.2106 4.0618 26.2099 4.06273 26.2091 4.06369C26.2088 4.06407 26.208 4.06507 26.2073 4.06581C26.2061 4.0673 26.2048 4.06894 26.2033 4.07074C26.2004 4.07432 26.1969 4.07852 26.193 4.08333C26.1851 4.09294 26.1753 4.10499 26.1636 4.11947C26.1402 4.14842 26.1092 4.18708 26.0709 4.23536C25.9943 4.33192 25.8886 4.467 25.7569 4.63994C25.4936 4.98577 25.1257 5.48332 24.6774 6.12722C23.7809 7.41455 22.5604 9.28991 21.2083 11.7103C18.5059 16.5476 15.2634 23.5877 13.0422 32.4804L20.8037 34.4191ZM13.0422 32.4804C10.8209 41.3731 10.3722 49.1108 10.4825 54.6506C10.5377 57.4224 10.733 59.6514 10.9189 61.209C11.0118 61.988 11.1025 62.6001 11.1723 63.0291C11.2072 63.2437 11.2369 63.4126 11.2591 63.5338C11.2702 63.5944 11.2794 63.6431 11.2865 63.6797C11.29 63.698 11.293 63.7132 11.2954 63.7254C11.2966 63.7315 11.2977 63.7368 11.2986 63.7414C11.299 63.7436 11.2994 63.7457 11.2998 63.7476C11.3 63.7486 11.3003 63.7498 11.3004 63.7503C11.3006 63.7515 11.3009 63.7527 15.2212 62.9583C19.1415 62.1639 19.1417 62.1649 19.1419 62.166C19.142 62.1662 19.1422 62.1672 19.1423 62.1678C19.1425 62.1689 19.1427 62.1699 19.1429 62.1706C19.1432 62.1721 19.1433 62.1729 19.1433 62.1729C19.1433 62.1729 19.1427 62.1699 19.1416 62.1639C19.1393 62.152 19.1348 62.1283 19.1283 62.093C19.1154 62.0224 19.0947 61.9055 19.0684 61.7443C19.0159 61.4218 18.9414 60.9222 18.8625 60.2613C18.7048 58.939 18.5304 56.9742 18.4809 54.4912C18.3819 49.5213 18.7841 42.5047 20.8037 34.4191L13.0422 32.4804Z" fill="white" mask="url(#path-1-outside-1_3035_1225)"/>
<mask id="path-3-outside-2_3035_1225" maskUnits="userSpaceOnUse" x="-2.94099" y="-3.09246" width="46.0694" height="75.1836" fill="black">
<rect fill="white" x="-2.94099" y="-3.09246" width="46.0694" height="75.1836"/>
<path d="M29.7108 4.94907L15.749 10.6285ZM14.807 64.6159L4.96124 54.3163ZM29.7108 4.94907L34.9322 18.4555ZM14.807 64.6159L25.7027 55.8327Z"/>
</mask>
<path d="M29.7108 4.94907L33.4417 3.50674C33.0548 2.50596 32.282 1.70256 31.2971 1.27705C30.3121 0.851545 29.1974 0.839596 28.2036 1.24389L29.7108 4.94907ZM14.2418 6.92331C12.1955 7.75572 11.2115 10.0894 12.0439 12.1357C12.8763 14.182 15.2099 15.1661 17.2562 14.3337L14.2418 6.92331ZM14.807 64.6159L11.9155 67.3799C13.3517 68.8822 15.6992 69.0344 17.3173 67.73L14.807 64.6159ZM7.85266 51.5523C6.32615 49.9554 3.79413 49.8983 2.19724 51.4249C0.600357 52.9514 0.54331 55.4834 2.06983 57.0803L7.85266 51.5523ZM31.2013 19.8978C31.9978 21.9583 34.314 22.983 36.3745 22.1864C38.435 21.3898 39.4597 19.0737 38.6631 17.0131L31.2013 19.8978ZM28.213 58.9469C29.9329 57.5604 30.2033 55.0422 28.8168 53.3223C27.4304 51.6024 24.9122 51.3321 23.1923 52.7185L28.213 58.9469ZM28.2036 1.24389L14.2418 6.92331L17.2562 14.3337L31.218 8.65424L28.2036 1.24389ZM17.6984 61.8519L7.85266 51.5523L2.06983 57.0803L11.9155 67.3799L17.6984 61.8519ZM25.9799 6.39139L31.2013 19.8978L38.6631 17.0131L33.4417 3.50674L25.9799 6.39139ZM17.3173 67.73L28.213 58.9469L23.1923 52.7185L12.2966 61.5017L17.3173 67.73Z" fill="white" mask="url(#path-3-outside-2_3035_1225)"/>
<path d="M57.239 33.4555C56.9314 34.6951 56.9428 35.9798 57.2558 37.1946L45.5684 34.2945C43.6057 33.8075 41.5298 34.1201 39.7976 35.1636C38.0653 36.2071 36.8185 37.896 36.3315 39.8587C35.8444 41.8215 36.1571 43.8973 37.2005 45.6296C38.244 47.3618 39.9329 48.6086 41.8957 49.0956L68.1461 55.6094L65.6043 57.1406L65.6012 57.1425C63.8854 58.1803 62.5648 59.7607 61.8482 61.6335C61.1317 63.5063 61.0602 65.5645 61.645 67.4826L61.6455 67.4843C62.2264 69.3832 63.5252 70.9807 65.2657 71.9368C67.0062 72.893 69.051 73.1324 70.9653 72.6042C84.775 68.7949 92.8018 66.5096 94.9052 65.7788L94.9072 65.7781L96.1761 65.3357L96.183 65.3332C100.009 63.9834 103.441 61.7044 106.169 58.7009C108.651 55.9673 110.481 52.7115 111.526 49.1794C111.566 49.0846 111.599 48.9855 111.624 48.8825L111.81 48.1331L111.81 48.1328L111.812 48.1255L111.812 48.1252L113.431 41.6033C114.996 35.2967 113.991 28.6268 110.638 23.0609C107.285 17.4949 101.859 13.4888 95.5523 11.9239L79.174 7.85985C77.2112 7.37281 75.1354 7.68543 73.4031 8.72891C71.6709 9.7724 70.4241 11.4613 69.937 13.424C69.5836 14.8485 69.6513 16.3325 70.1139 17.7015C69.0413 17.8254 67.9968 18.1768 67.0541 18.7446C65.3218 19.7881 64.075 21.477 63.588 23.4398C63.2346 24.8642 63.3023 26.3482 63.7648 27.7172C62.6922 27.8411 61.6478 28.1925 60.7051 28.7604C58.9728 29.8039 57.726 31.4928 57.239 33.4555Z" stroke="white" stroke-width="4" stroke-linecap="round" stroke-linejoin="round"/>
</g>
<path d="M29.297 6.6063C29.297 6.6063 21.1639 16.4714 16.9229 33.4497C12.682 50.4281 15.2212 62.9583 15.2212 62.9583" stroke="black" stroke-width="4" stroke-linecap="round" stroke-linejoin="round"/>
<path d="M15.749 10.6285L29.7108 4.94907L34.9322 18.4555M4.96124 54.3163L14.807 64.6159L25.7027 55.8327" stroke="black" stroke-width="4" stroke-linecap="round" stroke-linejoin="round"/>
<path d="M73.3141 54.8311L42.3773 47.1545C40.9294 46.7952 39.6835 45.8755 38.9137 44.5976C38.1439 43.3197 37.9133 41.7883 38.2726 40.3404C38.6319 38.8924 39.5517 37.6465 40.8296 36.8768C42.1075 36.107 43.6388 35.8764 45.0867 36.2356L63.2849 40.7513C61.8369 40.392 60.591 39.4723 59.8212 38.1944C59.0514 36.9165 58.8208 35.3851 59.1801 33.9372C59.5394 32.4892 60.4592 31.2433 61.7371 30.4736C63.015 29.7038 64.5463 29.4732 65.9943 29.8324L69.6339 30.7356C68.1859 30.3763 66.94 29.4565 66.1703 28.1786C65.4005 26.9007 65.1699 25.3694 65.5291 23.9214C65.8884 22.4735 66.8082 21.2276 68.0861 20.4578C69.364 19.688 70.8953 19.4574 72.3433 19.8167L75.9829 20.7198C74.535 20.3606 73.2891 19.4408 72.5193 18.1629C71.7495 16.885 71.5189 15.3536 71.8782 13.9057C72.2375 12.4578 73.1572 11.2119 74.4351 10.4421C75.713 9.67231 77.2444 9.44169 78.6923 9.80098L95.0706 13.8651C100.862 15.3022 105.846 18.9813 108.925 24.0929C112.004 29.2045 112.927 35.3299 111.49 41.1216L109.871 47.6438L109.869 47.6512C108.972 51.265 107.192 54.5998 104.688 57.3562C102.183 60.1146 99.0316 62.2075 95.5176 63.4471L94.2487 63.8896C92.2248 64.5928 84.2863 66.855 70.4333 70.6762C69.0211 71.0659 67.5126 70.8893 66.2287 70.1839C64.9447 69.4786 63.9866 68.3001 63.558 66.8992C63.103 65.4069 63.1586 63.8053 63.7162 62.3481C64.2737 60.8909 65.3013 59.6613 66.6363 58.8538L73.3141 54.8311Z" fill="#FFEED9"/>
<path d="M45.0867 36.2356C43.6388 35.8764 42.1075 36.107 40.8296 36.8768C39.5517 37.6465 38.6319 38.8924 38.2726 40.3404C37.9133 41.7883 38.1439 43.3197 38.9137 44.5976C39.6835 45.8755 40.9294 46.7952 42.3773 47.1545L73.3141 54.8311L66.6363 58.8538C65.3013 59.6613 64.2737 60.8909 63.7162 62.3481C63.1586 63.8053 63.103 65.4069 63.558 66.8992C63.9866 68.3001 64.9447 69.4786 66.2287 70.1839C67.5126 70.8893 69.0211 71.0659 70.4333 70.6762C84.2863 66.855 92.2248 64.5928 94.2487 63.8896L95.5176 63.4471C99.0316 62.2075 102.183 60.1146 104.688 57.3562C107.192 54.5998 108.972 51.265 109.869 47.6512M45.0867 36.2356L72.3839 43.0091M45.0867 36.2356L63.2849 40.7513M70.5641 42.5576L63.2849 40.7513M63.2849 40.7513C61.8369 40.392 60.591 39.4723 59.8212 38.1944C59.0514 36.9165 58.8208 35.3851 59.1801 33.9372C59.5394 32.4892 60.4592 31.2433 61.7371 30.4736C63.015 29.7038 64.5463 29.4732 65.9943 29.8324M65.9943 29.8324L75.0933 32.0903M65.9943 29.8324L69.6339 30.7356C68.1859 30.3763 66.94 29.4565 66.1703 28.1786C65.4005 26.9007 65.1699 25.3694 65.5291 23.9214C65.8884 22.4735 66.8082 21.2276 68.0861 20.4578C69.364 19.688 70.8953 19.4574 72.3433 19.8167L75.9829 20.7198C74.535 20.3606 73.2891 19.4408 72.5193 18.1629C71.7495 16.885 71.5189 15.3536 71.8782 13.9057C72.2375 12.4578 73.1572 11.2119 74.4351 10.4421C75.713 9.67231 77.2444 9.44169 78.6923 9.80098L95.0706 13.8651C100.862 15.3022 105.846 18.9813 108.925 24.0929C112.004 29.2045 112.927 35.3299 111.49 41.1216M111.49 41.1216L109.871 47.6438M111.49 41.1216L109.869 47.6512M109.683 48.4009L109.869 47.6512M109.871 47.6438L109.869 47.6512M109.871 47.6438C109.871 47.6463 109.87 47.6487 109.869 47.6512" stroke="black" stroke-width="4" stroke-linecap="round" stroke-linejoin="round"/>
<defs>
<filter id="filter0_d_3035_1225" x="0.960938" y="0.949219" width="119.191" height="77.9297" filterUnits="userSpaceOnUse" color-interpolation-filters="sRGB">
<feFlood flood-opacity="0" result="BackgroundImageFix"/>
<feColorMatrix in="SourceAlpha" type="matrix" values="0 0 0 0 0 0 0 0 0 0 0 0 0 0 0 0 0 0 127 0" result="hardAlpha"/>
<feOffset dx="2" dy="2"/>
<feGaussianBlur stdDeviation="1"/>
<feComposite in2="hardAlpha" operator="out"/>
<feColorMatrix type="matrix" values="0 0 0 0 0 0 0 0 0 0 0 0 0 0 0 0 0 0 0.25 0"/>
<feBlend mode="normal" in2="BackgroundImageFix" result="effect1_dropShadow_3035_1225"/>
<feBlend mode="normal" in="SourceGraphic" in2="effect1_dropShadow_3035_1225" result="shape"/>
</filter>
</defs>
</svg>
