<svg width="760" height="542" viewBox="0 0 760 542" fill="none" xmlns="http://www.w3.org/2000/svg">
<g filter="url(#filter0_f_3747_1328)">
<path d="M355.593 13.8561C397.814 11.29 436.01 29.5297 456.882 58.9369C478.122 41.6908 505.865 30.3922 536.761 28.5144C607.046 24.2425 668.297 70.1852 672.095 132.675C672.87 145.412 671.073 157.741 667.278 169.363C711.837 191.196 743.272 231.864 746.226 280.468C750.685 353.824 688.852 416.803 607.644 426.827C604.506 480.552 553.487 524.291 489.865 528.158C438.172 531.299 391.692 507.425 370.746 470.039C357.219 486.706 335.69 498.031 310.988 499.533C275.646 501.681 243.936 483.042 232.453 454.754C211.893 471.535 184.971 482.512 155.004 484.333C87.0705 488.462 27.8278 444.056 24.1533 383.603C22.033 348.717 39.0516 316.785 66.782 295.332C36.8377 278.372 16.0062 249.556 13.9292 215.385C10.42 157.646 61.447 108.749 126.239 104.811C135.663 104.238 144.864 104.686 153.737 105.973C155.895 74.8414 184.507 49.9239 219.69 47.7854C237.453 46.7058 254.063 51.5655 267.014 60.4857C285.828 34.2953 318.124 16.1334 355.593 13.8561Z" stroke="white" stroke-width="10"/>
</g>
<defs>
<filter id="filter0_f_3747_1328" x="0.756836" y="0.616211" width="758.697" height="540.817" filterUnits="userSpaceOnUse" color-interpolation-filters="sRGB">
<feFlood flood-opacity="0" result="BackgroundImageFix"/>
<feBlend mode="normal" in="SourceGraphic" in2="BackgroundImageFix" result="shape"/>
<feGaussianBlur stdDeviation="4" result="effect1_foregroundBlur_3747_1328"/>
</filter>
</defs>
</svg>
