<svg width="780" height="593" viewBox="0 0 780 593" fill="none" xmlns="http://www.w3.org/2000/svg">
<g filter="url(#filter0_f_1869_982)">
<path d="M605 324C608 379 692.041 362.5 716.5 367.5C715 374.5 697.839 387.469 691 397.5C679.5 437.5 691 508.5 691 508.5C642 532.5 618.5 549.999 556.5 561.999C527.128 570.192 490.89 585.049 441 586.999C287.5 592.999 174.22 581.572 83.0798 521.999C17.3975 512.325 7.00042 471 15.0004 438C15.0004 438 36.6604 436.604 40.0004 415C46.0004 393.5 17.8967 349.038 4.00042 334.5C4.00042 334.5 51.0004 368 83.0798 370C103.52 365.81 137.5 304.522 130.432 304.522C133.645 309.126 161.909 292.257 180 269C198 247.5 203.706 232.629 181.5 210C181.5 210 239 183 243 161.5C223 119 130 54.0001 130 54.0001C144.788 47.6299 155.5 41.0001 198 37.5001C249.072 25.7735 335 2.49988 383 5.49982C479.5 5.49981 576.5 -3.00012 649.78 26.5178C712.5 59.4999 764.5 88 775.5 106.5C775.5 106.5 759 207 730.5 228.5C690 291.5 599 303.5 605 324Z" fill="#FFDD53" fill-opacity="0.7"/>
</g>
<defs>
<filter id="filter0_f_1869_982" x="0.000488281" y="0.364258" width="779.5" height="592.056" filterUnits="userSpaceOnUse" color-interpolation-filters="sRGB">
<feFlood flood-opacity="0" result="BackgroundImageFix"/>
<feBlend mode="normal" in="SourceGraphic" in2="BackgroundImageFix" result="shape"/>
<feGaussianBlur stdDeviation="2" result="effect1_foregroundBlur_1869_982"/>
</filter>
</defs>
</svg>
